<svg xmlns="http://www.w3.org/2000/svg" width="128.217" height="15.028" viewBox="0 0 128.217 15.028">
    <path data-name="패스 31" d="M0 0h4.77c2.617 0 4.025 1.493 4.025 3.623a3.19 3.19 0 0 1-2.114 3.222 3.668 3.668 0 0 1 2.6 3.643c0 2.947-2.057 4.249-4.458 4.249H0zm4.42 6.335c2.363 0 3.261-.944 3.261-2.647a2.557 2.557 0 0 0-2.854-2.635H1.038v5.282zm-3.382 7.348h3.821a2.985 2.985 0 0 0 3.305-3.132c0-1.875-1.114-3.19-3.872-3.19H1.038z" style="fill:#212322"/>
    <path data-name="패스 32" d="M24.134 14.992a13.164 13.164 0 0 0 .134 1.993h-.936a6.948 6.948 0 0 1-.178-1.618 3.181 3.181 0 0 1-3.184 1.872 3.012 3.012 0 0 1-3.242-3.152c0-2.312 1.656-3.363 4.592-3.363h1.853V9.63c0-1.051-.293-2.458-2.547-2.458a2.168 2.168 0 0 0-2.477 1.974h-.974a3.117 3.117 0 0 1 3.476-2.936c2.229 0 3.484 1.006 3.484 3.318zm-.962-3.363h-1.91c-2.165 0-3.515.637-3.515 2.414a2.108 2.108 0 0 0 2.242 2.223c2.8 0 3.184-1.993 3.184-4.267z" transform="translate(-6.073 -2.231)" style="fill:#212322"/>
    <path data-name="패스 33" d="M32.33 9.318v-2.86h.955c0 .338.038 1.013.038 2.356a3.732 3.732 0 0 1 3.382-2.6V7.35c-2.032.146-3.4 1.656-3.4 4.159v5.458h-.975z" transform="translate(-11.741 -2.231)" style="fill:#212322"/>
    <path data-name="패스 34" d="M49.221 14.045v3.063h-.885a16.634 16.634 0 0 1-.057-1.828 3.02 3.02 0 0 1-3.184 2.083c-1.4 0-3.184-.586-3.184-3.821V6.6h.962v6.706c0 1.535.446 3.025 2.382 3.025 2.191 0 3.012-1.325 3.012-4.331V6.6h.974z" transform="translate(-15.22 -2.372)" style="fill:#212322"/>
    <path data-name="패스 35" d="M56.89 9.1V6.451h.955c.038.338.057 1.707.038 2A3.184 3.184 0 0 1 61.131 6.2c1.739 0 3.28 1.057 3.28 3.955v6.808h-.993v-6.646c0-1.866-.726-3.089-2.426-3.089-2.324 0-3.127 2.082-3.127 4.375v5.356h-.975z" transform="translate(-20.66 -2.223)" style="fill:#212322"/>
    <path data-name="패스 36" d="M72.55 14.071a2.617 2.617 0 0 0 2.77 2.2c1.745 0 2.446-.86 2.446-2.038s-.471-1.783-2.656-2.356c-2.547-.637-3.146-1.471-3.146-2.859s1.013-2.789 3.222-2.789a3.184 3.184 0 0 1 3.42 2.942h-.974a2.35 2.35 0 0 0-2.484-1.981c-1.7 0-2.191.9-2.191 1.745 0 .968.471 1.452 2.407 1.955 2.751.713 3.439 1.681 3.439 3.261 0 1.911-1.446 3.089-3.5 3.089a3.474 3.474 0 0 1-3.751-3.152z" transform="translate(-25.983 -2.232)" style="fill:#212322"/>
    <path data-name="패스 37" d="M93.9 11.693c0 2.923-1.5 5.528-4.413 5.528-2.637 0-4.28-2.331-4.28-5.509 0-3.006 1.541-5.5 4.375-5.5 2.6 0 4.318 2.184 4.318 5.483m-7.642 0c0 2.5 1.274 4.522 3.324 4.522s3.305-1.872 3.305-4.522c-.019-2.433-1.191-4.5-3.356-4.5s-3.286 1.993-3.286 4.515" transform="translate(-30.944 -2.231)" style="fill:#212322"/>
    <path data-name="패스 38" d="M101.75 9.1V6.451h.955c.038.338.057 1.707.038 2a3.184 3.184 0 0 1 3.248-2.251c1.739 0 3.28 1.057 3.28 3.955v6.808h-.993v-6.646c0-1.866-.726-3.089-2.426-3.089-2.325 0-3.127 2.082-3.127 4.375v5.356h-.974z" transform="translate(-36.951 -2.223)" style="fill:#212322"/>
    <path data-name="패스 39" d="M147.392 8.479a1.758 1.758 0 0 0-1.051.312 2.452 2.452 0 0 0-.694.809 3.516 3.516 0 0 0-.376 1.083 6.206 6.206 0 0 0-.115 1.178 5.931 5.931 0 0 0 .115 1.146 3.629 3.629 0 0 0 .357 1.057 2.28 2.28 0 0 0 .675.777 1.739 1.739 0 0 0 1.038.3 1.828 1.828 0 0 0 1.446-.573 2.815 2.815 0 0 0 .637-1.541h2.547a4.916 4.916 0 0 1-1.477 3.184 4.515 4.515 0 0 1-3.127 1.083 4.815 4.815 0 0 1-1.993-.408 4.458 4.458 0 0 1-1.528-1.1 5.1 5.1 0 0 1-.974-1.681 6.3 6.3 0 0 1-.35-2.146 7.5 7.5 0 0 1 .318-2.248 5.191 5.191 0 0 1 .955-1.79 4.343 4.343 0 0 1 1.579-1.165 4.866 4.866 0 0 1 2.07-.42 5.623 5.623 0 0 1 1.637.242 4.267 4.267 0 0 1 1.388.72 3.821 3.821 0 0 1 1.006 1.229 4.164 4.164 0 0 1 .446 1.739h-2.547a1.815 1.815 0 0 0-1.942-1.79" transform="translate(-51.756 -2.277)" style="fill:#212322"/>
    <path data-name="패스 40" d="M159.052 9.8a3.528 3.528 0 0 1 .5-1.675 3.235 3.235 0 0 1 1.032-1.064 4.343 4.343 0 0 1 1.414-.573 7.362 7.362 0 0 1 1.579-.172 10.355 10.355 0 0 1 1.458.108 4.248 4.248 0 0 1 1.35.433 2.745 2.745 0 0 1 .993.9 2.637 2.637 0 0 1 .388 1.516v5.42a11.5 11.5 0 0 0 .076 1.35 2.547 2.547 0 0 0 .255.962h-2.687a4.238 4.238 0 0 1-.121-.49 4.385 4.385 0 0 1-.064-.516 3.35 3.35 0 0 1-1.478.987 5.407 5.407 0 0 1-1.739.287 4.337 4.337 0 0 1-1.274-.185 2.719 2.719 0 0 1-1.032-.567 2.5 2.5 0 0 1-.694-.962 3.534 3.534 0 0 1-.248-1.388 3.248 3.248 0 0 1 .287-1.458 2.477 2.477 0 0 1 .739-.917 3.14 3.14 0 0 1 1.032-.516 10.769 10.769 0 0 1 1.172-.274c.395-.064.783-.121 1.165-.159a6.623 6.623 0 0 0 1.013-.178 1.72 1.72 0 0 0 .707-.357.8.8 0 0 0 .236-.675 1.668 1.668 0 0 0-.134-.732 1.134 1.134 0 0 0-.369-.42 1.388 1.388 0 0 0-.541-.2 4.223 4.223 0 0 0-.637-.051 1.86 1.86 0 0 0-1.216.363 1.694 1.694 0 0 0-.516 1.21zm6.056 2.114a1.077 1.077 0 0 1-.414.248 4.069 4.069 0 0 1-.535.153c-.191.038-.388.076-.6.1s-.42.057-.637.1a4.618 4.618 0 0 0-.58.166 1.655 1.655 0 0 0-.5.267 1.273 1.273 0 0 0-.338.433 1.49 1.49 0 0 0-.134.669 1.4 1.4 0 0 0 .134.637 1.064 1.064 0 0 0 .35.414 1.567 1.567 0 0 0 .516.21 3.184 3.184 0 0 0 .637.057 2.121 2.121 0 0 0 1.2-.28 1.764 1.764 0 0 0 .637-.675 2.356 2.356 0 0 0 .248-.8 5.619 5.619 0 0 0 .045-.637z" transform="translate(-57.442 -2.27)" style="fill:#212322"/>
    <path data-name="패스 41" d="M178.27 6.6v1.911h.038a3.655 3.655 0 0 1 .5-.9 3.293 3.293 0 0 1 .72-.707 3.51 3.51 0 0 1 .847-.427 2.872 2.872 0 0 1 .962-.159 1.815 1.815 0 0 1 .573.1v2.66c-.127 0-.274-.051-.446-.07a4.528 4.528 0 0 0-.5 0 2.649 2.649 0 0 0-1.223.261 2.229 2.229 0 0 0-.783.669 3.082 3.082 0 0 0-.433 1.057 6.544 6.544 0 0 0-.127 1.312v4.7h-2.618V6.6z" transform="translate(-63.624 -2.27)" style="fill:#212322"/>
    <path data-name="패스 42" d="M192.809 13.588a2.824 2.824 0 0 1-1.21 1.218 3.733 3.733 0 0 1-1.688.376 3.771 3.771 0 0 1-1.911-.458 3.823 3.823 0 0 1-1.337-1.225 5.918 5.918 0 0 1-.8-1.786 8.172 8.172 0 0 1-.267-2.1 7.666 7.666 0 0 1 .267-2.029 5.483 5.483 0 0 1 .8-1.722 4.027 4.027 0 0 1 1.344-1.206 3.689 3.689 0 0 1 1.847-.453 3.428 3.428 0 0 1 1.618.4 2.932 2.932 0 0 1 1.21 1.155h.038V.53h2.617v14.4h-2.477v-1.34zm-.109-5.154a3.239 3.239 0 0 0-.382-1.046 2.206 2.206 0 0 0-.694-.74 1.908 1.908 0 0 0-1.07-.281 2.035 2.035 0 0 0-1.089.281 2.142 2.142 0 0 0-.707.746 3.283 3.283 0 0 0-.357 1.091 6.065 6.065 0 0 0-.121 1.244 5.541 5.541 0 0 0 .127 1.206 3.455 3.455 0 0 0 .414 1.078 2.461 2.461 0 0 0 .72.772 1.857 1.857 0 0 0 1.044.287 1.908 1.908 0 0 0 1.083-.281 2.078 2.078 0 0 0 .694-.753 3.685 3.685 0 0 0 .369-1.084 7.243 7.243 0 0 0 .108-1.276 7.1 7.1 0 0 0-.108-1.238" transform="translate(-67.19 -.192)" style="fill:#212322"/>
    <path data-name="패스 43" d="m128.245.39-3.49 11.11L121.189.454l-.026-.064h-3.413v14.475h2.388V4.256l3.509 10.544.019.064h2.044l3.529-10.614v10.615h2.388V.39z" transform="translate(-42.761 -.142)" style="fill:#212322"/>
</svg>
