<?xml version="1.0" encoding="utf-8"?>
<!-- Generator: Adobe Illustrator 26.3.1, SVG Export Plug-In . SVG Version: 6.00 Build 0)  -->
<svg version="1.1" id="Layer_1" xmlns="http://www.w3.org/2000/svg" xmlns:xlink="http://www.w3.org/1999/xlink" x="0px" y="0px"
	 viewBox="0 0 120.5 20.6" style="enable-background:new 0 0 120.5 20.6;" xml:space="preserve">
<style type="text/css">
	.st0{clip-path:url(#SVGID_00000047759316921911756020000003736887240679188890_);}
	.st1{fill:#00315B;}
</style>
<g>
	<defs>
		<rect id="SVGID_1_" y="0" width="148.3" height="20.6"/>
	</defs>
	<clipPath id="SVGID_00000074407215681603211010000007477771098190540478_">
		<use xlink:href="#SVGID_1_"  style="overflow:visible;"/>
	</clipPath>
	<g style="clip-path:url(#SVGID_00000074407215681603211010000007477771098190540478_);">
		<path class="st1" d="M6.3,6C6.1,5.8,5.9,5.7,5.6,5.5C5.4,5.4,5.1,5.4,4.8,5.3C4.6,5.3,4.4,5.2,4.1,5.2c-0.2,0-0.4,0-0.6,0
			c-0.1,0-0.3,0-0.4,0c-0.2,0-0.3,0-0.5,0s-0.4,0-0.5,0s-0.3,0-0.4,0c-0.2,0-0.5,0-0.7,0s-0.5,0-0.7-0.1L0,5.2v0.1
			c0,0.7,0.1,1.4,0.1,2c0,0.7,0,1.3,0,2V12c0,0.7,0,1.3,0,2S0,15.3,0,15.9L0,16l0.1,0c0.5,0,1,0,1.5,0l0.1,0l0-0.1
			c0-0.6-0.1-1.3-0.1-2s0-1.3,0-2v-0.8c0.2,0,0.4,0,0.5,0c0.2,0,0.4,0,0.7,0c0.4,0,0.9,0,1.3-0.1c0.5-0.1,1-0.2,1.4-0.5
			c0.4-0.2,0.8-0.6,1.1-1C6.9,9.1,7,8.5,7,7.9c0-0.4-0.1-0.8-0.2-1.1C6.7,6.5,6.5,6.2,6.3,6 M5.4,8c0,0.4-0.1,0.9-0.3,1.3
			C5,9.5,4.8,9.8,4.5,10c-0.3,0.2-0.6,0.3-0.9,0.4c-0.7,0.1-1.3,0.1-2,0V5.9h1.3C3.2,5.9,3.6,6,4,6c0.3,0,0.5,0.1,0.8,0.3
			C5,6.5,5.1,6.7,5.2,6.9C5.4,7.3,5.4,7.6,5.4,8"/>
		<path class="st1" d="M17.3,15.2c-0.2-0.3-0.5-0.6-0.8-0.9s-0.5-0.7-0.8-1.1s-0.6-0.7-0.8-1.1s-0.5-0.6-0.7-0.9l-0.4-0.5
			c0.3-0.1,0.6-0.1,0.9-0.2c0.4-0.1,0.7-0.3,1.1-0.6c0.3-0.2,0.6-0.6,0.8-0.9c0.2-0.4,0.4-0.9,0.3-1.3c0-0.4-0.1-0.8-0.3-1.2
			c-0.2-0.3-0.4-0.6-0.7-0.8c-0.3-0.2-0.7-0.3-1.1-0.4c-0.7-0.1-1.4-0.2-2.1-0.1c-0.6,0-1.2,0.1-1.8,0c-0.3,0-0.6,0-0.9-0.1l-0.1,0
			v0.1c0,0.7,0.1,1.4,0.1,2s0,1.3,0,2V12c0,0.7,0,1.3,0,2s-0.1,1.3-0.1,2l0,0.1l0.1,0c0.5,0,1,0,1.5,0l0.1,0l0-0.1
			c0-0.6-0.1-1.3-0.1-2s0-1.3,0-2v-1h0.5c0.3,0.3,0.7,0.7,1.1,1.2c1,1.2,2,2.5,2.9,3.8l0,0l0.1,0c0.1,0,0.3,0,0.4,0h0.9
			c0.2,0,0.3,0,0.5,0l0.2,0l-0.2-0.2C17.6,15.7,17.4,15.4,17.3,15.2 M14.3,9.7c-0.3,0.2-0.6,0.3-0.9,0.4c-0.5,0.1-1,0.1-1.5,0.1
			c-0.1,0-0.3,0-0.4,0V9.3c0-0.6,0-1.1,0-1.7L11.5,6C12,6,12.5,5.9,12.9,5.9c0.3,0,0.5,0,0.8,0.1c0.3,0.1,0.5,0.2,0.7,0.3
			c0.2,0.2,0.4,0.4,0.6,0.6c0.2,0.3,0.2,0.6,0.2,1c0,0.4-0.1,0.8-0.3,1.1C14.8,9.3,14.6,9.5,14.3,9.7"/>
		<path class="st1" d="M26.1,15.1l0-0.1L26,15c-0.3,0.1-0.6,0.1-0.9,0.1c-0.7,0.1-1.5,0.1-2.2,0.1h-1c0-0.3,0-0.5,0-0.8
			c0-0.4,0-0.9,0-1.5v-1.5c0-0.2,0-0.3,0-0.4c0-0.1,0-0.2,0-0.2l0.7,0l1,0c0.3,0,0.7,0,1.1,0s0.7,0,0.9,0.1l0.1,0l0-0.1
			c0-0.1,0-0.3,0-0.4c0-0.2,0-0.3,0-0.5l0-0.1l-0.1,0c-0.2,0-0.5,0-0.7,0.1l-0.8,0c-0.3,0-0.6,0-1,0c-0.3,0-0.7,0-1.1,0
			c0-0.2,0-0.5,0-0.8c0-0.4,0-0.8,0-1.2c0-0.4,0-0.7,0-1c0-0.3,0-0.6,0-0.9c0.5,0,0.9,0,1.2,0c0.4,0,0.7,0,1,0.1L25,6.2
			c0.3,0,0.6,0,0.9,0.1l0.1,0l0-0.1C26,5.9,26,5.6,26,5.3l0-0.1l-0.1,0c-0.5,0-0.9,0-1.4,0.1c-0.9,0-1.8,0-2.8,0
			c-0.5,0-0.9,0-1.4-0.1h-0.1v0.1c0,0.7,0.1,1.3,0.1,2c0,0.7,0,1.3,0,2v2.7c0,0.7,0,1.3,0,2s-0.1,1.3-0.1,2V16h0.1
			c0.5,0,0.9,0,1.4,0h2.8c0.5,0,0.9,0,1.4,0l0.1,0l0-0.1c0-0.1,0-0.3,0-0.4c0-0.1,0-0.1,0-0.2C26.1,15.2,26.1,15.1,26.1,15.1"/>
		<path class="st1" d="M41.3,13.3c-0.1-0.9-0.2-1.8-0.3-2.6s-0.2-1.8-0.3-2.7c-0.1-0.9-0.2-1.9-0.3-2.9l0-0.1H40l0,0l-0.8,1.5
			c-0.3,0.5-0.6,1.1-0.9,1.7c-0.3,0.6-0.6,1.1-0.9,1.7c-0.3,0.6-0.6,1.1-0.8,1.5c-0.3,0.5-0.5,0.9-0.7,1.3c-0.2,0.3-0.3,0.5-0.4,0.7
			c-0.8-1.4-1.5-2.8-2.2-4.1c-0.7-1.4-1.5-2.8-2.2-4.3l0,0h-0.4l0,0.1c-0.1,0.8-0.2,1.7-0.3,2.6s-0.2,1.8-0.4,2.8s-0.3,1.9-0.4,2.8
			s-0.3,1.8-0.4,2.6l0,0.1l0.1,0c0.4,0,0.7,0,1.1,0l0.1,0v-0.1c0-0.4,0-0.9,0.1-1.6s0.1-1.3,0.2-2.1s0.2-1.5,0.2-2.2l0.2-1.9
			c0.6,1.3,1.3,2.5,1.9,3.8c0.7,1.3,1.3,2.6,1.9,3.9l0,0h0.2l0,0c0.6-1.4,1.3-2.7,2-4c0.7-1.2,1.3-2.5,2-3.7
			c0.2,1.3,0.3,2.5,0.4,3.7c0.1,1.3,0.2,2.6,0.3,4l0,0.1l0.1,0c0.1,0,0.2,0,0.3,0h0.7c0.1,0,0.2,0,0.4,0l0.1,0l0-0.1
			C41.5,15,41.4,14.2,41.3,13.3"/>
		<path class="st1" d="M46.8,7.3c0-0.7,0.1-1.3,0.1-2V5.2l-0.1,0c-0.1,0-0.3,0-0.4,0.1c-0.2,0-0.5,0-0.7,0c-0.1,0-0.3,0-0.4-0.1
			l-0.1,0l0,0.1c0,0.7,0.1,1.4,0.1,2c0,0.7,0,1.3,0,2V12c0,0.7,0,1.3,0,2s-0.1,1.3-0.1,2l0,0.1l0.1,0c0.5,0,1,0,1.5,0l0.1,0v-0.1
			c0-0.6-0.1-1.3-0.1-2s0-1.3,0-2V9.3C46.8,8.6,46.8,7.9,46.8,7.3"/>
		<path class="st1" d="M56.5,15.1l0-0.1l-0.1,0c-0.3,0.1-0.6,0.1-0.9,0.1c-0.7,0.1-1.5,0.1-2.2,0.1h-1c0-0.3,0-0.5,0-0.8
			c0-0.4,0-0.9,0-1.5v-1.5c0-0.2,0-0.3,0-0.4c0-0.1,0-0.2,0-0.2l0.7,0l1,0c0.3,0,0.7,0,1.1,0s0.7,0,0.9,0.1l0.1,0l0-0.1
			c0-0.1,0-0.3,0-0.4c0-0.2,0-0.3,0-0.5l0-0.1l-0.1,0c-0.2,0-0.5,0-0.7,0.1l-0.8,0c-0.3,0-0.6,0-1,0c-0.4,0-0.8,0-1.1,0
			c0-0.2,0-0.5,0-0.8c0-0.4,0-0.8,0-1.2c0-0.4,0-0.7,0-1c0-0.3,0-0.6,0-0.9c0.5,0,0.9,0,1.2,0c0.4,0,0.7,0,1,0.1l0.9,0.1
			c0.3,0,0.6,0,0.9,0.1l0.1,0l0-0.1c-0.1-0.3-0.1-0.6,0-0.9l0-0.1l-0.1,0c-0.5,0-0.9,0-1.4,0.1c-0.9,0-1.8,0-2.8,0
			c-0.5,0-0.9,0-1.4-0.1h-0.1l0,0.1c0,0.7,0.1,1.3,0.1,2c0,0.7,0,1.3,0,2v2.7c0,0.7,0,1.3,0,2s-0.1,1.3-0.1,2l0,0.1h0.1
			c0.5,0,0.9,0,1.4,0h2.8c0.5,0,0.9,0,1.4,0l0.1,0l0-0.1c0-0.1,0-0.3,0-0.4c0-0.1,0-0.1,0-0.2C56.5,15.2,56.5,15.1,56.5,15.1"/>
		<path class="st1" d="M67,15.2c-0.2-0.3-0.5-0.6-0.8-0.9s-0.5-0.7-0.8-1.1s-0.6-0.7-0.8-1.1s-0.5-0.6-0.7-0.9
			c-0.2-0.2-0.3-0.4-0.4-0.5c0.3-0.1,0.6-0.1,0.9-0.2c0.4-0.1,0.7-0.3,1.1-0.6C65.7,9.7,66,9.4,66.2,9c0.2-0.4,0.4-0.9,0.3-1.3
			c0-0.4-0.1-0.8-0.3-1.2c-0.2-0.3-0.4-0.6-0.7-0.8c-0.3-0.2-0.7-0.3-1.1-0.4c-0.7-0.1-1.4-0.2-2.1-0.1c-0.6,0-1.2,0.1-1.8,0
			c-0.3,0-0.6,0-0.9-0.1l-0.1,0l0,0.1c0,0.7,0.1,1.4,0.1,2c0,0.7,0,1.3,0,2V12c0,0.7,0,1.3,0,2s-0.1,1.3-0.1,2l0,0.1l0.1,0
			c0.5,0,1,0,1.5,0l0.1,0v-0.1c0-0.6-0.1-1.3-0.1-2s0-1.3,0-2v-1.1h0.5c0.3,0.3,0.7,0.7,1.1,1.2c0.8,0.9,1.5,1.9,2.2,2.9
			c0.3,0.4,0.6,0.8,0.7,1l0,0l0.1,0c0.1,0,0.3,0,0.4,0H67c0.2,0,0.3,0,0.5,0l0.2,0l-0.2-0.2C67.4,15.7,67.2,15.4,67,15.2 M64,9.7
			c-0.3,0.2-0.6,0.3-0.9,0.4c-0.5,0.1-1,0.1-1.5,0.1c-0.1,0-0.3,0-0.4,0V9.3c0-0.6,0-1.1,0-1.7L61.2,6c0.5-0.1,0.9-0.1,1.4-0.1
			c0.3,0,0.5,0,0.8,0.1c0.3,0.1,0.5,0.2,0.7,0.3c0.2,0.2,0.4,0.4,0.6,0.6c0.2,0.3,0.2,0.6,0.2,1c0,0.4-0.1,0.8-0.3,1.1
			C64.5,9.3,64.3,9.5,64,9.7"/>
		<path class="st1" d="M80.7,6c-0.2-0.2-0.4-0.4-0.7-0.5c-0.2-0.1-0.5-0.2-0.8-0.2c-0.2-0.1-0.5-0.1-0.7-0.1c-0.2,0-0.4,0-0.6,0
			c-0.1,0-0.3,0-0.4,0s-0.3,0-0.5,0s-0.4,0-0.5,0s-0.3,0-0.4,0c-0.2,0-0.5,0-0.7,0s-0.5,0-0.8-0.1l-0.1,0l0,0.1c0,0.7,0.1,1.4,0.1,2
			s0,1.3,0,2V12c0,0.7,0,1.3,0,2s-0.1,1.3-0.1,2l0,0.1l0.1,0c0.5,0,1,0,1.5,0l0.1,0l0-0.1c0-0.6-0.1-1.3-0.1-2s0-1.3,0-2v-0.8
			c0.2,0,0.4,0,0.5,0c0.2,0,0.4,0,0.7,0c0.4,0,0.9,0,1.3-0.1c0.5-0.1,1-0.2,1.4-0.5c0.4-0.2,0.8-0.6,1.1-1c0.3-0.5,0.5-1.1,0.5-1.7
			c0-0.4-0.1-0.8-0.2-1.1C81.1,6.5,81,6.2,80.7,6 M79.8,8c0,0.4-0.1,0.9-0.3,1.3c-0.2,0.3-0.4,0.6-0.7,0.8c-0.3,0.2-0.6,0.3-0.9,0.4
			c-0.7,0.1-1.3,0.1-2,0V5.9h1.3c0.4,0,0.7,0,1.1,0.1c0.3,0,0.5,0.1,0.8,0.3c0.2,0.2,0.4,0.4,0.5,0.6C79.8,7.3,79.8,7.6,79.8,8"/>
		<path class="st1" d="M91,14.8c-0.5-1.2-1-2.4-1.6-3.6c-0.3-0.7-0.6-1.4-0.9-2.1S87.9,7.7,87.6,7S87.1,5.6,86.8,5l0-0.1h-0.4l0,0.1
			c-0.8,1.8-1.6,3.7-2.4,5.5s-1.6,3.6-2.4,5.4L81.5,16l0.2,0c0.4,0,0.8,0,1.1,0l0.1,0l0-0.1c0.1-0.5,0.3-1.1,0.6-1.8
			s0.6-1.5,0.9-2.2c0.3,0,0.6,0,0.9,0c0.7,0,1.3,0,2,0c0.3,0,0.6,0,0.9,0c0.1,0.3,0.3,0.7,0.4,1c0.2,0.4,0.3,0.7,0.5,1.1
			c0.2,0.4,0.3,0.7,0.4,1.1s0.2,0.6,0.3,0.9l0,0.1l0.1,0c0.1,0,0.3,0,0.4,0H91c0.1,0,0.3,0,0.4,0l0.2,0l-0.1-0.1
			C91.3,15.5,91.1,15.2,91,14.8 M87.8,11c-0.2,0-0.5,0-0.7,0c-0.6,0-1.1,0-1.7,0c-0.2,0-0.5,0-0.7,0l1.6-3.6L87.8,11z"/>
		<path class="st1" d="M100,6c-0.2-0.2-0.4-0.4-0.7-0.5c-0.2-0.1-0.5-0.2-0.8-0.2c-0.2-0.1-0.5-0.1-0.7-0.1c-0.2,0-0.4,0-0.6,0
			c-0.1,0-0.3,0-0.4,0c-0.2,0-0.3,0-0.5,0s-0.4,0-0.5,0s-0.3,0-0.4,0c-0.2,0-0.5,0-0.7,0s-0.5,0-0.8-0.1l-0.1,0l0,0.1
			c0,0.7,0.1,1.4,0.1,2c0,0.7,0,1.3,0,2V12c0,0.7,0,1.3,0,2s-0.1,1.3-0.1,2l0,0.1l0.1,0c0.5,0,1,0,1.5,0l0.1,0v-0.1
			c0-0.6-0.1-1.3-0.1-2s0-1.3,0-2v-0.8c0.2,0,0.4,0,0.5,0c0.2,0,0.4,0,0.7,0c0.4,0,0.9,0,1.3-0.1c0.5-0.1,1-0.2,1.4-0.5
			c0.4-0.2,0.8-0.6,1.1-1c0.3-0.5,0.5-1.1,0.5-1.7c0-0.4-0.1-0.8-0.2-1.1C100.4,6.5,100.2,6.2,100,6 M99.1,8c0,0.4-0.1,0.9-0.3,1.3
			c-0.2,0.3-0.4,0.6-0.7,0.8c-0.3,0.2-0.6,0.3-0.9,0.4c-0.7,0.1-1.3,0.1-2,0V5.9h1.3c0.4,0,0.7,0,1.1,0.1c0.3,0,0.5,0.1,0.8,0.3
			c0.2,0.2,0.4,0.4,0.5,0.6C99,7.3,99.1,7.6,99.1,8"/>
		<path class="st1" d="M109.3,15.1l0-0.1l-0.1,0c-0.3,0.1-0.6,0.1-0.9,0.1c-0.7,0.1-1.5,0.1-2.2,0.1h-1c0-0.3,0-0.5,0-0.8
			c0-0.5,0-1,0-1.5v-1.5c0-0.2,0-0.3,0-0.4c0-0.1,0-0.2,0-0.2l0.7,0l1,0c0.3,0,0.7,0,1.1,0s0.7,0,0.9,0.1l0.1,0l0-0.1
			c0-0.1,0-0.3,0-0.4c0-0.2,0-0.3,0-0.5l0-0.1l-0.1,0c-0.2,0-0.5,0-0.7,0.1l-0.8,0c-0.3,0-0.6,0-1,0c-0.3,0-0.7,0-1.1,0
			c0-0.2,0-0.5,0-0.8c0-0.4,0-0.8,0-1.2c0-0.4,0-0.7,0-1c0-0.3,0-0.6,0-0.9c0.5,0,0.9,0,1.2,0c0.4,0,0.7,0,1,0.1l0.9,0.1
			c0.3,0,0.6,0,0.9,0.1l0.1,0l0-0.1c-0.1-0.3-0.1-0.6,0-0.9l0-0.1l-0.1,0c-0.5,0-0.9,0-1.4,0.1c-0.9,0-1.8,0-2.8,0
			c-0.5,0-0.9,0-1.4-0.1h-0.1v0.1c0,0.7,0.1,1.3,0.1,2c0,0.7,0,1.3,0,2v2.7c0,0.7,0,1.3,0,2s-0.1,1.3-0.1,2V16h0.1
			c0.5,0,0.9,0,1.4,0h2.8c0.5,0,0.9,0,1.4,0l0.1,0l0-0.1c0-0.1,0-0.3,0-0.4c0-0.1,0-0.1,0-0.2C109.3,15.2,109.3,15.1,109.3,15.1"/>
		<path class="st1" d="M120.3,15.9c-0.1-0.1-0.3-0.4-0.6-0.6s-0.5-0.6-0.8-0.9s-0.5-0.7-0.8-1.1s-0.6-0.7-0.8-1.1s-0.5-0.6-0.7-0.9
			c-0.2-0.2-0.3-0.4-0.4-0.5c0.3-0.1,0.6-0.1,0.9-0.2c0.4-0.1,0.7-0.3,1.1-0.6c0.3-0.2,0.6-0.6,0.8-0.9c0.2-0.4,0.4-0.9,0.3-1.3
			c0-0.4-0.1-0.8-0.3-1.2c-0.2-0.3-0.4-0.6-0.7-0.8c-0.3-0.2-0.7-0.3-1.1-0.4c-0.7-0.1-1.4-0.2-2.1-0.1c-0.6,0-1.2,0.1-1.8,0
			c-0.3,0-0.6,0-0.9-0.1l-0.1,0v0.1c0,0.7,0.1,1.4,0.1,2c0,0.7,0,1.3,0,2V12c0,0.7,0,1.3,0,2s-0.1,1.3-0.1,2l0,0.1l0.1,0
			c0.5,0,1,0,1.5,0l0.1,0v-0.1c0-0.6-0.1-1.3-0.1-2s0-1.3,0-2v-1.1h0.5c0.3,0.3,0.7,0.7,1.1,1.2c1,1.2,2,2.5,2.9,3.8l0,0l0,0
			c0.1,0,0.3,0,0.4,0h0.9c0.2,0,0.3,0,0.5,0l0.2,0L120.3,15.9z M116.8,9.7c-0.3,0.2-0.6,0.3-0.9,0.4c-0.5,0.1-1,0.1-1.5,0.1
			c-0.1,0-0.3,0-0.4,0V9.3c0-0.6,0-1.1,0-1.7L114,6c0.5-0.1,0.9-0.1,1.4-0.1c0.3,0,0.5,0,0.8,0.1c0.3,0.1,0.5,0.2,0.7,0.3
			c0.2,0.2,0.4,0.4,0.6,0.6c0.2,0.3,0.2,0.6,0.2,1c0,0.4-0.1,0.8-0.3,1.1C117.3,9.3,117,9.5,116.8,9.7"/>
	</g>
</g>
</svg>
