<?xml version="1.0" encoding="UTF-8"?><svg id="_레이어_2" xmlns="http://www.w3.org/2000/svg" viewBox="0 0 162.47 23.09"><defs><style>.cls-1{fill:#212322;}</style></defs><g id="_레이어_1-2"><g><g><path class="cls-1" d="M0,0H5.86c3.22,0,4.95,1.84,4.95,4.45,0,2.14-1.2,3.54-2.6,3.95,1.2,.36,3.2,1.63,3.2,4.47,0,3.62-2.52,5.22-5.46,5.22H0S0,0,0,0ZM5.43,7.78c2.91,0,4.01-1.16,4.01-3.26,0-1.78-1.15-3.23-3.51-3.23H1.27V7.78H5.43ZM1.27,16.8H6.01c2.21,0,4.06-1.19,4.06-3.85,0-2.3-1.37-3.88-4.76-3.88H1.27v7.73Z"/><path class="cls-1" d="M22.21,15.64c0,1.14,.1,2.04,.17,2.46h-1.15c-.1-.31-.17-.88-.22-1.99-.41,.96-1.47,2.3-3.94,2.3-2.79,0-3.99-1.94-3.99-3.88,0-2.84,2.04-4.14,5.65-4.14h2.28v-1.32c0-1.29-.36-3.02-3.1-3.02-2.43,0-2.79,1.37-3.05,2.43h-1.2c.14-1.42,.96-3.62,4.28-3.62,2.74,0,4.28,1.24,4.28,4.08v6.7Zm-1.18-4.14h-2.35c-2.67,0-4.32,.75-4.32,2.97,0,1.63,1.08,2.74,2.76,2.74,3.44,0,3.92-2.46,3.92-5.25v-.47Z"/><path class="cls-1" d="M25.32,8.69c0-2.17-.02-3.1-.02-3.52h1.18c.02,.41,.05,1.24,.05,2.9,.7-1.94,2.24-3.1,4.18-3.2v1.39c-2.5,.18-4.18,2.04-4.18,5.12v6.72s-1.2,0-1.2,0V8.69Z"/><path class="cls-1" d="M41.81,14.32c0,1.27,.02,3.28,.02,3.77h-1.15c-.05-.34-.07-1.19-.07-2.25-.51,1.53-1.73,2.56-3.87,2.56-1.73,0-3.94-.72-3.94-4.68V5.17s1.18,0,1.18,0V13.42c0,1.89,.55,3.72,2.93,3.72,2.69,0,3.7-1.63,3.7-5.33V5.17s1.2,0,1.2,0V14.32Z"/><path class="cls-1" d="M44.55,8.43c0-1.14,0-2.22-.02-3.26h1.18c.05,.41,.07,2.1,.05,2.46,.53-1.32,1.52-2.77,3.99-2.77,2.14,0,4.04,1.29,4.04,4.86v8.38s-1.2,0-1.2,0V9.93c0-2.3-.89-3.8-2.98-3.8-2.86,0-3.85,2.56-3.85,5.38v6.59s-1.2,0-1.2,0V8.43Z"/><path class="cls-1" d="M57.26,14.53c.41,1.68,1.51,2.69,3.41,2.69,2.14,0,3-1.06,3-2.51s-.58-2.2-3.27-2.89c-3.1-.8-3.87-1.81-3.87-3.52s1.25-3.44,3.97-3.44,4.01,1.78,4.21,3.62h-1.2c-.22-1.09-1.01-2.43-3.05-2.43s-2.69,1.11-2.69,2.15c0,1.19,.58,1.78,2.95,2.4,3.39,.88,4.23,2.07,4.23,4.01,0,2.35-1.78,3.8-4.3,3.8-2.74,0-4.28-1.55-4.61-3.88h1.23Z"/><path class="cls-1" d="M77.43,11.61c0,3.59-1.85,6.8-5.43,6.8-3.25,0-5.26-2.87-5.26-6.77,0-3.7,1.9-6.77,5.38-6.77,3.2,0,5.31,2.69,5.31,6.75m-9.42,.03c0,3.08,1.54,5.56,4.09,5.56s4.06-2.3,4.06-5.56c0-3.05-1.44-5.56-4.11-5.56s-4.04,2.46-4.04,5.56"/><path class="cls-1" d="M79.69,8.43c0-1.14,0-2.22-.02-3.26h1.18c.05,.41,.07,2.1,.05,2.46,.53-1.32,1.52-2.77,3.99-2.77,2.14,0,4.04,1.29,4.04,4.86v8.38s-1.2,0-1.2,0V9.93c0-2.3-.89-3.8-2.98-3.8-2.86,0-3.85,2.56-3.85,5.38v6.59s-1.2,0-1.2,0V8.43Z"/></g><g><path class="cls-1" d="M108.17,18.08h-2.46c-.14-.47-.23-1.14-.27-1.96-.91,1.3-2.56,2.25-5.27,2.25-5.12,0-7.94-3.86-7.95-8.89,0-5.31,3.01-9.31,8.5-9.31,4.4,0,7.05,2.44,7.51,5.5h-3.32c-.45-1.45-1.55-2.87-4.24-2.86-3.79,0-5.03,3.13-5.02,6.52,0,3.25,1.35,6.38,5.02,6.37,3.51,0,4.23-2.4,4.23-4.46v-.17s-4.25,0-4.25,0v-2.75s7.5-.01,7.5-.01l.02,9.77Z"/><path class="cls-1" d="M113.15,14.19c.3,1.18,1.2,1.85,2.65,1.85,1.49,0,2.06-.6,2.05-1.53,0-.97-.56-1.38-2.59-1.89-3.98-1-4.69-2.27-4.69-4.1,0-1.91,1.32-3.89,4.97-3.89,3.67,0,5,2.1,5.13,3.89h-2.94c-.14-.6-.56-1.61-2.32-1.61-1.37,0-1.8,.65-1.8,1.34,0,.76,.44,1.14,2.6,1.66,4.12,.99,4.78,2.43,4.79,4.37,0,2.22-1.65,4.1-5.3,4.11-3.68,0-5.29-1.85-5.58-4.18h3.04Z"/><path class="cls-1" d="M125.9,.26V6.6c.6-.95,1.67-1.99,3.77-1.99,2.26,0,4.28,1.34,4.28,5.02v8.41s-3.05,0-3.05,0v-7.93c-.02-1.89-.72-2.9-2.32-2.9-2.07,0-2.67,1.53-2.66,3.79v7.04s-3.07,0-3.07,0l-.03-17.8h3.08Z"/><path class="cls-1" d="M148.38,11.42c0,3.91-2.23,6.9-6.22,6.91-3.85,0-6.13-2.9-6.14-6.83,0-4,2.29-6.92,6.27-6.92,3.68,0,6.07,2.72,6.08,6.84Zm-9.21,.04c0,2.65,1.18,4.35,3.07,4.34,1.93,0,3.01-1.67,3-4.34,0-2.82-1.1-4.36-3.06-4.36-1.89,0-3.02,1.5-3.01,4.35Z"/><path class="cls-1" d="M153.54,16.69v6.39s-3.05,0-3.05,0l-.02-15.04c0-1.07,0-2.14-.03-3.18h2.99c.05,.37,.1,1.18,.1,1.78,.59-1.09,1.78-2.09,3.86-2.09,2.89,0,5.08,2.49,5.09,6.54,0,4.65-2.45,7.21-5.54,7.22-1.89,0-2.87-.76-3.39-1.62Zm5.79-5.47c0-2.53-1.05-4.08-2.89-4.07-2.22,0-3.04,1.46-3.03,4.3,0,2.71,.73,4.31,2.89,4.31,2.02,0,3.04-1.66,3.04-4.53Z"/></g></g></g></svg>