<svg xmlns="http://www.w3.org/2000/svg" width="94.357" height="11.06" viewBox="0 0 94.357 11.06">
    <path data-name="패스 31" d="M0 0h3.508c1.925 0 2.96 1.1 2.96 2.667a2.347 2.347 0 0 1-1.554 2.37 2.7 2.7 0 0 1 1.915 2.681 2.975 2.975 0 0 1-3.279 3.127H0zm3.251 4.662c1.738 0 2.4-.695 2.4-1.948a1.881 1.881 0 0 0-2.1-1.939H.764v3.887zM.764 10.07h2.81a2.2 2.2 0 0 0 2.431-2.305c0-1.38-.82-2.347-2.848-2.347H.764z" style="fill:#212322"/>
    <path data-name="패스 32" d="M22.175 12.669a9.682 9.682 0 0 0 .1 1.466h-.689a5.11 5.11 0 0 1-.131-1.19 2.34 2.34 0 0 1-2.342 1.377A2.216 2.216 0 0 1 16.727 12c0-1.7 1.218-2.473 3.377-2.473h1.363v-.802c0-.773-.215-1.808-1.874-1.808a1.6 1.6 0 0 0-1.822 1.452h-.717a2.293 2.293 0 0 1 2.558-2.159c1.639 0 2.562.74 2.562 2.44zm-.708-2.469h-1.405c-1.593 0-2.586.468-2.586 1.775a1.55 1.55 0 0 0 1.649 1.635c2.056 0 2.342-1.466 2.342-3.138z" transform="translate(-8.89 -3.277)" style="fill:#212322"/>
    <path data-name="패스 33" d="M32.33 8.5V6.4h.7c0 .248.028.745.028 1.733a2.745 2.745 0 0 1 2.49-1.923v.838c-1.494.108-2.5 1.218-2.5 3.059v4.014h-.718z" transform="translate(-17.186 -3.277)" style="fill:#212322"/>
    <path data-name="패스 34" d="M47.287 12.076v2.253h-.651a12.234 12.234 0 0 1-.042-1.344 2.221 2.221 0 0 1-2.342 1.532c-1.031 0-2.342-.431-2.342-2.81V6.6h.707v4.932c0 1.129.328 2.225 1.752 2.225 1.611 0 2.216-.974 2.216-3.185V6.6h.715z" transform="translate(-22.279 -3.484)" style="fill:#212322"/>
    <path data-name="패스 35" d="M56.89 8.331V6.382h.7c.028.248.042 1.255.028 1.471a2.342 2.342 0 0 1 2.392-1.658c1.279 0 2.412.778 2.412 2.909v5.007h-.731V9.225c0-1.372-.534-2.272-1.785-2.272-1.71 0-2.3 1.532-2.3 3.218v3.939h-.716z" transform="translate(-30.242 -3.266)" style="fill:#212322"/>
    <path data-name="패스 36" d="M72.285 11.993a1.925 1.925 0 0 0 2.038 1.616c1.283 0 1.8-.632 1.8-1.5s-.347-1.312-1.953-1.733c-1.874-.468-2.314-1.082-2.314-2.1a2.107 2.107 0 0 1 2.37-2.052 2.342 2.342 0 0 1 2.514 2.162h-.717A1.728 1.728 0 0 0 74.2 6.929c-1.251 0-1.611.665-1.611 1.283 0 .712.347 1.068 1.771 1.438 2.024.525 2.529 1.237 2.529 2.4a2.3 2.3 0 0 1-2.576 2.272A2.555 2.555 0 0 1 71.55 12z" transform="translate(-38.035 -3.28)" style="fill:#212322"/>
    <path data-name="패스 37" d="M91.6 10.243c0 2.15-1.105 4.066-3.246 4.066-1.939 0-3.148-1.714-3.148-4.052 0-2.211 1.134-4.047 3.218-4.047 1.911 0 3.176 1.607 3.176 4.033m-5.621 0c0 1.841.937 3.326 2.445 3.326s2.431-1.377 2.431-3.326c-.014-1.789-.876-3.307-2.469-3.307s-2.412 1.464-2.412 3.321" transform="translate(-45.297 -3.277)" style="fill:#212322"/>
    <path data-name="패스 38" d="M101.75 8.331V6.382h.7c.028.248.042 1.255.028 1.471a2.342 2.342 0 0 1 2.389-1.658c1.279 0 2.412.778 2.412 2.909v5.007h-.731V9.225c0-1.372-.534-2.272-1.785-2.272-1.71 0-2.3 1.532-2.3 3.218v3.939h-.717z" transform="translate(-54.089 -3.266)" style="fill:#212322"/>
    <path data-name="패스 39" d="M146.1 7.913a1.293 1.293 0 0 0-.773.23 1.8 1.8 0 0 0-.511.595 2.586 2.586 0 0 0-.276.8 4.565 4.565 0 0 0-.084.867 4.361 4.361 0 0 0 .084.843 2.669 2.669 0 0 0 .262.778 1.677 1.677 0 0 0 .5.571 1.279 1.279 0 0 0 .764.22 1.344 1.344 0 0 0 1.063-.422 2.07 2.07 0 0 0 .468-1.134h1.874a3.616 3.616 0 0 1-1.087 2.342 3.321 3.321 0 0 1-2.3.8 3.541 3.541 0 0 1-1.466-.3 3.279 3.279 0 0 1-1.124-.806 3.748 3.748 0 0 1-.717-1.237 4.633 4.633 0 0 1-.258-1.579 5.514 5.514 0 0 1 .234-1.653 3.817 3.817 0 0 1 .7-1.316 3.194 3.194 0 0 1 1.162-.857 3.579 3.579 0 0 1 1.522-.309 4.136 4.136 0 0 1 1.2.178 3.138 3.138 0 0 1 1.021.529 2.81 2.81 0 0 1 .74.9 3.063 3.063 0 0 1 .328 1.279h-1.866a1.335 1.335 0 0 0-1.429-1.316" transform="translate(-75.762 -3.345)" style="fill:#212322"/>
    <path data-name="패스 40" d="M158.974 8.882a2.6 2.6 0 0 1 .365-1.232 2.379 2.379 0 0 1 .759-.782 3.194 3.194 0 0 1 1.04-.422 5.415 5.415 0 0 1 1.162-.126 7.616 7.616 0 0 1 1.073.08 3.124 3.124 0 0 1 .993.319 2.019 2.019 0 0 1 .731.66 1.939 1.939 0 0 1 .286 1.115v3.986a8.459 8.459 0 0 0 .056.993 1.874 1.874 0 0 0 .187.707h-1.977a3.117 3.117 0 0 1-.089-.361 3.223 3.223 0 0 1-.047-.379 2.464 2.464 0 0 1-1.087.726 3.977 3.977 0 0 1-1.279.211 3.19 3.19 0 0 1-.937-.136 2 2 0 0 1-.759-.417 1.836 1.836 0 0 1-.511-.707 2.6 2.6 0 0 1-.183-1.021 2.389 2.389 0 0 1 .211-1.073 1.822 1.822 0 0 1 .543-.675 2.309 2.309 0 0 1 .759-.379 7.921 7.921 0 0 1 .862-.2c.29-.047.576-.089.857-.117a4.871 4.871 0 0 0 .745-.131 1.265 1.265 0 0 0 .52-.262.59.59 0 0 0 .173-.5 1.227 1.227 0 0 0-.1-.539.834.834 0 0 0-.272-.309 1.021 1.021 0 0 0-.4-.15 3.106 3.106 0 0 0-.468-.037 1.368 1.368 0 0 0-.895.267 1.246 1.246 0 0 0-.379.89zm4.455 1.555a.792.792 0 0 1-.3.183 2.993 2.993 0 0 1-.393.112c-.141.028-.286.056-.44.075s-.309.042-.468.07a3.4 3.4 0 0 0-.428.123 1.218 1.218 0 0 0-.37.2.937.937 0 0 0-.248.319 1.1 1.1 0 0 0-.1.492 1.026 1.026 0 0 0 .1.468.782.782 0 0 0 .258.3 1.152 1.152 0 0 0 .379.155 2.342 2.342 0 0 0 .468.042 1.56 1.56 0 0 0 .881-.206 1.3 1.3 0 0 0 .468-.5 1.733 1.733 0 0 0 .183-.586 4.131 4.131 0 0 0 .033-.468z" transform="translate(-84.187 -3.335)" style="fill:#212322"/>
    <path data-name="패스 41" d="M177.611 6.526v1.405h.028a2.688 2.688 0 0 1 .37-.66 2.422 2.422 0 0 1 .529-.52 2.582 2.582 0 0 1 .623-.314 2.113 2.113 0 0 1 .707-.117 1.335 1.335 0 0 1 .422.075v1.953c-.094 0-.2-.037-.328-.052a3.33 3.33 0 0 0-.365 0 1.949 1.949 0 0 0-.9.192 1.639 1.639 0 0 0-.576.492 2.267 2.267 0 0 0-.319.778 4.814 4.814 0 0 0-.094.965v3.457h-1.93V6.526z" transform="translate(-93.237 -3.335)" style="fill:#212322"/>
    <path data-name="패스 42" d="M190.9 10.14a2.077 2.077 0 0 1-.89.9 2.744 2.744 0 0 1-1.241.277 2.773 2.773 0 0 1-1.405-.338 2.813 2.813 0 0 1-.984-.9 4.357 4.357 0 0 1-.58-1.319 6.017 6.017 0 0 1-.2-1.545 5.644 5.644 0 0 1 .2-1.493 4.036 4.036 0 0 1 .586-1.268 2.963 2.963 0 0 1 .988-.887 2.712 2.712 0 0 1 1.358-.333 2.52 2.52 0 0 1 1.19.291 2.157 2.157 0 0 1 .89.85h.028V.53h1.925v10.6h-1.825v-.99zm-.08-3.793a2.384 2.384 0 0 0-.281-.77 1.623 1.623 0 0 0-.511-.545 1.4 1.4 0 0 0-.787-.207 1.5 1.5 0 0 0-.8.207 1.576 1.576 0 0 0-.52.549 2.417 2.417 0 0 0-.262.8 4.465 4.465 0 0 0-.089.915 4.079 4.079 0 0 0 .094.887 2.544 2.544 0 0 0 .3.793 1.81 1.81 0 0 0 .529.568 1.365 1.365 0 0 0 .768.211 1.4 1.4 0 0 0 .8-.207 1.529 1.529 0 0 0 .513-.548 2.713 2.713 0 0 0 .272-.8 5.332 5.332 0 0 0 .08-.939 5.225 5.225 0 0 0-.08-.911" transform="translate(-98.457 -.282)" style="fill:#212322"/>
    <path data-name="패스 43" d="M125.469.39 122.9 8.564 120.279.437l-.018-.047h-2.511v10.652h1.757V3.235l2.58 7.765.014.047h1.5L126.2 3.23v7.812h1.757V.39z" transform="translate(-62.595 -.207)" style="fill:#212322"/>
</svg>
