<svg xmlns="http://www.w3.org/2000/svg" width="86.975" height="15.379" viewBox="0 0 86.975 15.379">
    <defs>
        <clipPath id="ggrgs6j9va">
            <path data-name="사각형 244" style="fill:none" d="M0 0h86.975v15.379H0z"/>
        </clipPath>
    </defs>
    <g data-name="그룹 18" style="clip-path:url(#ggrgs6j9va)">
        <path data-name="패스 5" d="M3.469 7.306a5.442 5.442 0 0 1 1.174.12 2.49 2.49 0 0 1 .928.4 1.882 1.882 0 0 1 .607.74A2.73 2.73 0 0 1 6.393 9.7 2.2 2.2 0 0 1 6 11.012a1.966 1.966 0 0 1-1.165.748v.027a2.088 2.088 0 0 1 1.367.672 2.217 2.217 0 0 1 .5 1.52 3.479 3.479 0 0 1-.158 1.057 2.085 2.085 0 0 1-.541.878 2.718 2.718 0 0 1-.993.6 4.434 4.434 0 0 1-1.52.223H0V7.306zm-.807 3.871a2.188 2.188 0 0 0 1.261-.283 1.106 1.106 0 0 0 .4-.959 1.136 1.136 0 0 0-.36-.951 1.887 1.887 0 0 0-1.139-.277h-.751v2.47zm.216 4.163a2.163 2.163 0 0 0 1.21-.305 1.245 1.245 0 0 0 .461-1.123 1.647 1.647 0 0 0-.123-.68 1.115 1.115 0 0 0-.332-.436 1.233 1.233 0 0 0-.5-.233 2.914 2.914 0 0 0-.632-.065h-.889v2.842z" transform="translate(0 -1.545)" style="fill:#56575a"/>
        <path data-name="패스 6" d="M9.538 12.214a2.255 2.255 0 0 1 .216-1.037 1.857 1.857 0 0 1 .584-.674 2.41 2.41 0 0 1 .862-.37 4.9 4.9 0 0 1 1.06-.112 5.318 5.318 0 0 1 1.439.158 1.994 1.994 0 0 1 .85.449 1.471 1.471 0 0 1 .411.695 3.372 3.372 0 0 1 .108.877v3.739a4.579 4.579 0 0 0 .051.78 2.43 2.43 0 0 0 .193.593h-1.9a1.429 1.429 0 0 1-.151-.364 14.58 14.58 0 0 1-.094-.373h-.028a1.629 1.629 0 0 1-.8.717 3.465 3.465 0 0 1-1.173.165 2.077 2.077 0 0 1-.878-.165 1.441 1.441 0 0 1-.576-.455 1.881 1.881 0 0 1-.315-.653 2.584 2.584 0 0 1-.1-.72 2.849 2.849 0 0 1 .117-.867 1.644 1.644 0 0 1 .352-.622 1.89 1.89 0 0 1 .6-.426 4.738 4.738 0 0 1 .886-.3l1.122-.278a1.239 1.239 0 0 0 .62-.291.774.774 0 0 0 .172-.543.927.927 0 0 0-.208-.643.938.938 0 0 0-.714-.229.886.886 0 0 0-.691.251.961.961 0 0 0-.23.674v.2H9.538zm3.2 1.777a2.953 2.953 0 0 1-.417.125 1.591 1.591 0 0 0-.866.4 1.058 1.058 0 0 0-.259.752 1.357 1.357 0 0 0 .173.7.612.612 0 0 0 .577.29 1.513 1.513 0 0 0 .417-.059 1.188 1.188 0 0 0 .4-.191 1.008 1.008 0 0 0 .41-.845v-1.4a1.809 1.809 0 0 1-.431.232" transform="translate(-1.965 -2.119)" style="fill:#56575a"/>
        <path data-name="패스 7" d="M19.85 10.2v.953h.03a2.642 2.642 0 0 1 .733-.828 1.761 1.761 0 0 1 1.052-.308c.058 0 .117 0 .18.006s.122.011.181.019v1.745c-.1-.01-.208-.015-.311-.021s-.2-.007-.309-.007a1.977 1.977 0 0 0-.518.068 1.471 1.471 0 0 0-.476.215 1.145 1.145 0 0 0-.345.4 1.29 1.29 0 0 0-.13.6v4.266H17.95V10.2z" transform="translate(-3.796 -2.119)" style="fill:#56575a"/>
        <path data-name="패스 8" d="M27.7 16.531a1.8 1.8 0 0 1-.8.752 2.669 2.669 0 0 1-1.122.223 2.027 2.027 0 0 1-1.423-.454 1.993 1.993 0 0 1-.5-1.526v-5.272h1.933v4.9a1.168 1.168 0 0 0 .2.772.817.817 0 0 0 .63.217q1.023 0 1.024-1.177v-4.712h1.935v7.107h-1.852v-.83z" transform="translate(-5.045 -2.168)" style="fill:#56575a"/>
        <path data-name="패스 9" d="M34.069 10.2v.834h.031a1.893 1.893 0 0 1 .8-.774 2.478 2.478 0 0 1 1.118-.244 1.973 1.973 0 0 1 1.423.476 2.056 2.056 0 0 1 .5 1.542v5.272H36v-4.9a1.164 1.164 0 0 0-.2-.774.8.8 0 0 0-.63-.217q-1.022 0-1.023 1.175v4.715H32.22V10.2z" transform="translate(-6.813 -2.119)" style="fill:#56575a"/>
        <path data-name="패스 10" d="M58.2 10.2v.834h.029a1.9 1.9 0 0 1 .8-.774 2.471 2.471 0 0 1 1.117-.244 1.971 1.971 0 0 1 1.423.476 2.046 2.046 0 0 1 .5 1.542v5.272H60.13v-4.9a1.18 1.18 0 0 0-.194-.774.806.806 0 0 0-.631-.217q-1.023 0-1.024 1.175v4.715h-1.934V10.2z" transform="translate(-11.915 -2.119)" style="fill:#56575a"/>
        <path data-name="패스 11" d="M41.954 15.226a1.045 1.045 0 0 0 .266.746 1.007 1.007 0 0 0 .77.283 1.182 1.182 0 0 0 .736-.21.755.755 0 0 0 .274-.635.64.64 0 0 0-.216-.521 1.7 1.7 0 0 0-.5-.283l-1.4-.463a2.714 2.714 0 0 1-1.239-.747 1.819 1.819 0 0 1-.417-1.236 2.155 2.155 0 0 1 .159-.825 1.73 1.73 0 0 1 .5-.681 2.57 2.57 0 0 1 .888-.463 4.345 4.345 0 0 1 1.3-.171 3.123 3.123 0 0 1 2 .529 1.81 1.81 0 0 1 .648 1.49v.293h-1.781a1.347 1.347 0 0 0-.195-.812.8.8 0 0 0-.683-.257 1.139 1.139 0 0 0-.655.189.65.65 0 0 0-.281.575.726.726 0 0 0 .179.478 1.433 1.433 0 0 0 .684.356l1.2.369a2.756 2.756 0 0 1 1.325.76 1.932 1.932 0 0 1 .389 1.274 2.1 2.1 0 0 1-.218.986 1.957 1.957 0 0 1-.6.693 2.476 2.476 0 0 1-.907.4 5.31 5.31 0 0 1-1.159.117 5.536 5.536 0 0 1-1.389-.146 2.081 2.081 0 0 1-.879-.434 1.567 1.567 0 0 1-.453-.708 3.063 3.063 0 0 1-.129-.93v-.252h1.784z" transform="translate(-8.494 -2.119)" style="fill:#56575a"/>
        <path data-name="패스 12" d="M48.069 12.146a2.96 2.96 0 0 1 .518-1.167 2.278 2.278 0 0 1 .944-.714 3.7 3.7 0 0 1 1.431-.244 3.944 3.944 0 0 1 1.483.217 2.05 2.05 0 0 1 .938.708 3.012 3.012 0 0 1 .489 1.176 8.3 8.3 0 0 1 .145 1.638 7.266 7.266 0 0 1-.16 1.61 2.948 2.948 0 0 1-.517 1.17 2.125 2.125 0 0 1-.942.695 4.032 4.032 0 0 1-1.437.223 4.144 4.144 0 0 1-1.48-.2 1.981 1.981 0 0 1-.938-.685 2.965 2.965 0 0 1-.49-1.177 8.311 8.311 0 0 1-.145-1.633 7.377 7.377 0 0 1 .159-1.613m1.859 2.617a3.179 3.179 0 0 0 .135.793 1.114 1.114 0 0 0 .326.516.853.853 0 0 0 .574.184.838.838 0 0 0 .838-.58 5.767 5.767 0 0 0 .229-1.916 5.765 5.765 0 0 0-.229-1.915.836.836 0 0 0-.838-.58.853.853 0 0 0-.574.184 1.1 1.1 0 0 0-.326.514 3.2 3.2 0 0 0-.135.793c-.02.31-.03.643-.03 1s.01.7.03 1" transform="translate(-10.131 -2.119)" style="fill:#56575a"/>
        <path data-name="패스 13" d="M70.977 9.136a2.535 2.535 0 0 0-2.239-1.313 2.776 2.776 0 0 0-1.443.356 2.961 2.961 0 0 0-.987.942 4.274 4.274 0 0 0-.568 1.328 6.4 6.4 0 0 0 0 3.033 4.259 4.259 0 0 0 .568 1.335 2.964 2.964 0 0 0 .987.943 2.776 2.776 0 0 0 1.443.357 2.325 2.325 0 0 0 1.062-.237 2.5 2.5 0 0 0 .817-.647 3.34 3.34 0 0 0 .556-.957 4.319 4.319 0 0 0 .27-1.184h.805a5.576 5.576 0 0 1-.367 1.575 3.906 3.906 0 0 1-.733 1.188 3.089 3.089 0 0 1-1.059.753 3.373 3.373 0 0 1-1.352.263 3.622 3.622 0 0 1-1.744-.4 3.731 3.731 0 0 1-1.248-1.077A4.779 4.779 0 0 1 65 13.832a7.157 7.157 0 0 1 0-3.727 4.9 4.9 0 0 1 .745-1.564 3.694 3.694 0 0 1 1.248-1.083 3.6 3.6 0 0 1 1.744-.4 3.549 3.549 0 0 1 1.174.2 3.3 3.3 0 0 1 1.042.588 3.387 3.387 0 0 1 .781.956 3.491 3.491 0 0 1 .4 1.308h-.8a3.289 3.289 0 0 0-.349-.969" transform="translate(-13.693 -1.492)" style="fill:#56575a"/>
        <path data-name="패스 14" d="M75.7 11.627a1.914 1.914 0 0 1 .516-.712 2.038 2.038 0 0 1 .761-.411 3.342 3.342 0 0 1 .97-.133 3.716 3.716 0 0 1 .8.088 1.845 1.845 0 0 1 .723.321 1.743 1.743 0 0 1 .519.669 2.653 2.653 0 0 1 .2 1.116v3.619c0 .335.145.5.437.5a.538.538 0 0 0 .238-.052v.7c-.088.017-.164.03-.231.039a2.056 2.056 0 0 1-.254.013 1.031 1.031 0 0 1-.456-.084.633.633 0 0 1-.266-.247.929.929 0 0 1-.124-.376 3.533 3.533 0 0 1-.031-.481h-.022a5.922 5.922 0 0 1-.408.589 2.23 2.23 0 0 1-.461.43 2.047 2.047 0 0 1-.58.263 2.855 2.855 0 0 1-.774.093 2.749 2.749 0 0 1-.8-.112 1.745 1.745 0 0 1-.649-.357 1.656 1.656 0 0 1-.438-.621 2.271 2.271 0 0 1-.16-.891 1.911 1.911 0 0 1 .283-1.117 1.827 1.827 0 0 1 .752-.616 3.907 3.907 0 0 1 1.052-.295c.39-.058.786-.115 1.187-.167a3.321 3.321 0 0 0 .414-.065.7.7 0 0 0 .3-.139.631.631 0 0 0 .185-.271 1.312 1.312 0 0 0 .062-.449 1.659 1.659 0 0 0-.122-.692 1.055 1.055 0 0 0-.344-.431 1.3 1.3 0 0 0-.509-.218 3.091 3.091 0 0 0-.62-.059 1.744 1.744 0 0 0-1.158.377 1.555 1.555 0 0 0-.475 1.207h-.744a3.059 3.059 0 0 1 .225-1.03m3.723 2.035a.421.421 0 0 1-.271.211 2.469 2.469 0 0 1-.354.094c-.318.06-.641.114-.975.165a4.7 4.7 0 0 0-.916.217 1.732 1.732 0 0 0-.68.417 1.054 1.054 0 0 0-.266.773 1.318 1.318 0 0 0 .112.559 1.4 1.4 0 0 0 .3.423 1.27 1.27 0 0 0 .44.271 1.463 1.463 0 0 0 .509.094 2.321 2.321 0 0 0 .817-.147 1.941 1.941 0 0 0 .677-.423 2.106 2.106 0 0 0 .462-.673 2.25 2.25 0 0 0 .17-.9v-1.079z" transform="translate(-15.906 -2.193)" style="fill:#56575a"/>
        <path data-name="패스 15" d="M84.1 10.6v1.6h.025a2.578 2.578 0 0 1 .881-1.281 2.123 2.123 0 0 1 1.423-.409v.832a2.016 2.016 0 0 0-1.638.66 2.4 2.4 0 0 0-.468.788 2.906 2.906 0 0 0-.165 1v3.631h-.747V10.6z" transform="translate(-17.639 -2.221)" style="fill:#56575a"/>
        <path data-name="패스 16" d="M92.483 16.738v-1.294h-.026a1.963 1.963 0 0 1-.347.609 2.326 2.326 0 0 1-.525.468 2.659 2.659 0 0 1-.633.3 2.337 2.337 0 0 1-.668.1 2.393 2.393 0 0 1-2.068-1.064 3.513 3.513 0 0 1-.51-1.15 5.915 5.915 0 0 1 0-2.76 3.538 3.538 0 0 1 .51-1.149 2.575 2.575 0 0 1 .856-.789 2.433 2.433 0 0 1 1.212-.29 2.406 2.406 0 0 1 .668.094 2.173 2.173 0 0 1 1.11.753 1.968 1.968 0 0 1 .338.647h.024V7.306h.744v9.432zM88.4 14.381a3.1 3.1 0 0 0 .356.933 2.052 2.052 0 0 0 .621.666 1.569 1.569 0 0 0 .91.259 1.833 1.833 0 0 0 1-.259 2.06 2.06 0 0 0 .662-.666 2.919 2.919 0 0 0 .366-.933 4.944 4.944 0 0 0 0-2.1 2.9 2.9 0 0 0-.366-.931 2.115 2.115 0 0 0-.662-.668 1.846 1.846 0 0 0-1-.256 1.579 1.579 0 0 0-.91.256 2.109 2.109 0 0 0-.621.668 3.076 3.076 0 0 0-.356.931 4.979 4.979 0 0 0 0 2.1" transform="translate(-18.512 -1.545)" style="fill:#56575a"/>
        <path data-name="패스 17" d="M100.292 1.411a.891.891 0 1 1-1.236-.254.892.892 0 0 1 1.236.254" transform="translate(-20.862 -.214)" style="fill:#3278b2"/>
        <path data-name="패스 18" d="M107.105 11.753a.891.891 0 1 1-1.235-.253.891.891 0 0 1 1.235.253" transform="translate(-22.303 -2.401)" style="fill:#3278b2"/>
        <path data-name="패스 19" d="M97.475 4.062a.891.891 0 1 1-1.148.52.891.891 0 0 1 1.148-.52" transform="translate(-20.357 -.847)" style="fill:#3278b2"/>
        <path data-name="패스 20" d="M109.065 8.423a.89.89 0 1 1-1.147.52.891.891 0 0 1 1.147-.52" transform="translate(-22.809 -1.769)" style="fill:#3278b2"/>
        <path data-name="패스 21" d="M96.754 7.861a.891.891 0 1 1-.623 1.1.891.891 0 0 1 .623-1.1" transform="translate(-20.321 -1.656)" style="fill:#3278b2"/>
        <path data-name="패스 22" d="M108.694 4.577a.891.891 0 1 1-.623 1.1.89.89 0 0 1 .623-1.1" transform="translate(-22.846 -.961)" style="fill:#3278b2"/>
        <path data-name="패스 23" d="M98.4 11.36a.891.891 0 1 1 .139 1.251.889.889 0 0 1-.139-1.251" transform="translate(-20.768 -2.332)" style="fill:#3278b2"/>
        <path data-name="패스 24" d="M106.134 1.684a.891.891 0 1 1 .14 1.252.89.89 0 0 1-.14-1.252" transform="translate(-22.402 -.286)" style="fill:#3278b2"/>
        <path data-name="패스 25" d="M101.8 13.22a.89.89 0 1 1 .849.931.889.889 0 0 1-.849-.931" transform="translate(-21.526 -2.616)" style="fill:#3278b2"/>
        <path data-name="패스 26" d="M102.361.85a.891.891 0 1 1 .85.931.89.89 0 0 1-.85-.931" transform="translate(-21.645)" style="fill:#3278b2"/>
        <path data-name="패스 27" d="M104.638 8.547a.551.551 0 1 1-.921.606l-3.058-4.637a.554.554 0 0 1 .159-.763.548.548 0 0 1 .763.155z" transform="translate(-21.267 -.774)" style="fill:#3278b2"/>
        <path data-name="패스 28" d="M105.15 7.356a.551.551 0 1 1-.388 1.031l-5.2-1.956A.552.552 0 0 1 99.95 5.4z" transform="translate(-20.978 -1.134)" style="fill:#3278b2"/>
        <path data-name="패스 29" d="M104.861 5.7a.551.551 0 1 1 .293 1.063L99.8 8.234a.551.551 0 1 1-.292-1.062z" transform="translate(-20.956 -1.201)" style="fill:#3278b2"/>
        <path data-name="패스 30" d="M103.885 4.074a.553.553 0 0 1 .863.691L101.282 9.1a.552.552 0 0 1-.863-.688z" transform="translate(-21.21 -.818)" style="fill:#3278b2"/>
        <path data-name="패스 31" d="M102.6 3.634a.551.551 0 1 1 1.1.049l-.254 5.551a.551.551 0 1 1-1.1-.051z" transform="translate(-21.642 -.657)" style="fill:#3278b2"/>
        <path data-name="패스 32" d="M1.73 4.262h-.5V.758H0V.321h2.954v.437H1.73z" transform="translate(0 -.068)" style="fill:#56575a"/>
        <path data-name="패스 33" d="M6.435 4.193V2.3a.781.781 0 0 0-.16-.538.649.649 0 0 0-.5-.177.811.811 0 0 0-.659.251 1.3 1.3 0 0 0-.208.827v1.53h-.489V0H4.9v1.229a2.716 2.716 0 0 1-.028.416h.032a.906.906 0 0 1 .375-.337 1.216 1.216 0 0 1 .547-.121 1.143 1.143 0 0 1 .811.257 1.09 1.09 0 0 1 .272.823v1.926z" transform="translate(-.934)" style="fill:#56575a"/>
        <path data-name="패스 34" d="M9.961 4.565a1.366 1.366 0 0 1-1.045-.4 1.557 1.557 0 0 1-.378-1.109 1.709 1.709 0 0 1 .353-1.136 1.178 1.178 0 0 1 .954-.42 1.151 1.151 0 0 1 .889.36 1.383 1.383 0 0 1 .331.975v.293H9.04a1.134 1.134 0 0 0 .256.766.89.89 0 0 0 .687.261 2.292 2.292 0 0 0 .45-.042 2.579 2.579 0 0 0 .5-.162v.426a2.42 2.42 0 0 1-.461.148 2.662 2.662 0 0 1-.509.043M9.84 1.894a.7.7 0 0 0-.55.224 1.043 1.043 0 0 0-.24.622h1.506a.96.96 0 0 0-.191-.631.659.659 0 0 0-.526-.215" transform="translate(-1.805 -.317)" style="fill:#56575a"/>
        <path data-name="패스 35" d="M17.983 2.27a2.168 2.168 0 0 1-.483 1.488 1.69 1.69 0 0 1-1.337.542 1.713 1.713 0 0 1-1.347-.532 2.18 2.18 0 0 1-.475-1.5 2.165 2.165 0 0 1 .477-1.496 1.722 1.722 0 0 1 1.354-.529 1.689 1.689 0 0 1 1.334.538 2.166 2.166 0 0 1 .477 1.489m-3.116 0a1.857 1.857 0 0 0 .333 1.191 1.349 1.349 0 0 0 1.93.006 1.869 1.869 0 0 0 .329-1.2 1.852 1.852 0 0 0-.326-1.19 1.166 1.166 0 0 0-.96-.4 1.187 1.187 0 0 0-.973.405 1.838 1.838 0 0 0-.331 1.185" transform="translate(-3.033 -.052)" style="fill:#56575a"/>
        <path data-name="패스 36" d="M21.358 1.5a1.689 1.689 0 0 1 .348.032l-.059.447a1.475 1.475 0 0 0-.321-.037.785.785 0 0 0-.435.129.871.871 0 0 0-.314.357 1.112 1.112 0 0 0-.114.5V4.51h-.485V1.551h.4l.054.542h.022a1.281 1.281 0 0 1 .4-.445.909.909 0 0 1 .5-.151" transform="translate(-4.225 -.317)" style="fill:#56575a"/>
        <path data-name="패스 37" d="M22.822.468A.3.3 0 0 1 22.9.233a.3.3 0 0 1 .2-.073.292.292 0 0 1 .2.073.291.291 0 0 1 .085.234.3.3 0 0 1-.08.233.286.286 0 0 1-.2.076A.29.29 0 0 1 22.9.7a.3.3 0 0 1-.082-.234m.523 3.76h-.481V1.268h.485z" transform="translate(-4.826 -.034)" style="fill:#56575a"/>
        <path data-name="패스 38" d="m26.606 4.483.016-.364H26.6a1.028 1.028 0 0 1-.916.445 1.086 1.086 0 0 1-.9-.4 1.758 1.758 0 0 1-.322-1.128 1.774 1.774 0 0 1 .324-1.126 1.175 1.175 0 0 1 1.816.035h.029l.065-.393h.386v3.007a1.293 1.293 0 0 1-.323.956 1.368 1.368 0 0 1-1 .321 2.589 2.589 0 0 1-1.059-.189V5.2a2.288 2.288 0 0 0 1.091.232.8.8 0 0 0 .6-.221.83.83 0 0 0 .22-.612zm-.849-.315a.805.805 0 0 0 .651-.241 1.194 1.194 0 0 0 .2-.775v-.117a1.437 1.437 0 0 0-.2-.862.778.778 0 0 0-.661-.27.657.657 0 0 0-.575.295 1.468 1.468 0 0 0-.2.842 1.472 1.472 0 0 0 .2.838.669.669 0 0 0 .591.289" transform="translate(-5.174 -.317)" style="fill:#56575a"/>
        <path data-name="패스 39" d="M28.933.468a.3.3 0 0 1 .083-.234.31.31 0 0 1 .4 0 .288.288 0 0 1 .084.234.294.294 0 0 1-.084.232.3.3 0 0 1-.4 0 .3.3 0 0 1-.083-.234m.523 3.76h-.485V1.268h.485z" transform="translate(-6.118 -.034)" style="fill:#56575a"/>
        <path data-name="패스 40" d="M32.8 4.51V2.618a.781.781 0 0 0-.16-.538.649.649 0 0 0-.5-.177.8.8 0 0 0-.662.252 1.293 1.293 0 0 0-.206.82V4.51h-.486V1.551h.391l.073.4h.027a.916.916 0 0 1 .386-.338 1.245 1.245 0 0 1 .547-.12 1.1 1.1 0 0 1 .808.264 1.118 1.118 0 0 1 .264.822V4.51z" transform="translate(-6.51 -.317)" style="fill:#56575a"/>
        <path data-name="패스 41" d="m36.882 4.511-.094-.42h-.022a1.239 1.239 0 0 1-.441.376 1.356 1.356 0 0 1-.554.1.968.968 0 0 1-.684-.229.836.836 0 0 1-.248-.647q0-.9 1.421-.943l.5-.019v-.177a.722.722 0 0 0-.145-.5.6.6 0 0 0-.467-.161 1.391 1.391 0 0 0-.443.07 3.623 3.623 0 0 0-.392.157l-.148-.364a2.2 2.2 0 0 1 .488-.186 2.1 2.1 0 0 1 .523-.067 1.154 1.154 0 0 1 .8.237.972.972 0 0 1 .262.755v2.018zm-1-.337a.9.9 0 0 0 .64-.22.815.815 0 0 0 .233-.624v-.265l-.437.019a1.586 1.586 0 0 0-.743.162.489.489 0 0 0-.233.45.451.451 0 0 0 .142.356.584.584 0 0 0 .4.124" transform="translate(-7.367 -.318)" style="fill:#56575a"/>
        <path data-name="사각형 243" transform="translate(30.784)" style="fill:#56575a" d="M0 0h.485v4.193H0z"/>
        <path data-name="패스 42" d="M44.914 3.193a.981.981 0 0 1-.372.807 1.622 1.622 0 0 1-1.035.3 2.537 2.537 0 0 1-1.083-.186V3.64a2.857 2.857 0 0 0 .548.17 2.762 2.762 0 0 0 .557.062 1.088 1.088 0 0 0 .666-.17.553.553 0 0 0 .224-.466.583.583 0 0 0-.081-.323.765.765 0 0 0-.27-.237 3.839 3.839 0 0 0-.576-.251 1.866 1.866 0 0 1-.781-.471 1.029 1.029 0 0 1-.234-.7.883.883 0 0 1 .346-.733 1.435 1.435 0 0 1 .911-.271 2.634 2.634 0 0 1 1.086.221L44.666.9a2.469 2.469 0 0 0-.943-.211.882.882 0 0 0-.548.151.5.5 0 0 0-.2.423.618.618 0 0 0 .077.323.71.71 0 0 0 .248.233 3.215 3.215 0 0 0 .538.241 2.9 2.9 0 0 1 .655.314.99.99 0 0 1 .318.35 1.027 1.027 0 0 1 .1.473" transform="translate(-8.971 -.053)" style="fill:#56575a"/>
        <path data-name="패스 43" d="M46.457.468a.3.3 0 0 1 .083-.235.31.31 0 0 1 .4 0 .288.288 0 0 1 .085.234.294.294 0 0 1-.085.233.3.3 0 0 1-.4 0 .3.3 0 0 1-.083-.234m.523 3.76h-.485V1.268h.485z" transform="translate(-9.824 -.034)" style="fill:#56575a"/>
        <path data-name="패스 44" d="M50.325 4.51V2.618a.781.781 0 0 0-.16-.538.649.649 0 0 0-.5-.177.8.8 0 0 0-.665.253 1.3 1.3 0 0 0-.206.82V4.51h-.486V1.551h.392l.073.4h.027a.91.91 0 0 1 .385-.338 1.245 1.245 0 0 1 .547-.12 1.1 1.1 0 0 1 .808.264 1.118 1.118 0 0 1 .264.822V4.51z" transform="translate(-10.216 -.317)" style="fill:#56575a"/>
        <path data-name="패스 45" d="M53.779 4.564a1.276 1.276 0 0 1-.994-.392 1.619 1.619 0 0 1-.356-1.125 1.664 1.664 0 0 1 .36-1.147 1.3 1.3 0 0 1 1.025-.4 2.049 2.049 0 0 1 .427.045 1.406 1.406 0 0 1 .349.114l-.148.4a1.875 1.875 0 0 0-.639-.14.776.776 0 0 0-.661.282 1.382 1.382 0 0 0-.213.84 1.349 1.349 0 0 0 .213.82.739.739 0 0 0 .631.285 1.815 1.815 0 0 0 .768-.173v.431a1.639 1.639 0 0 1-.763.159" transform="translate(-11.087 -.317)" style="fill:#56575a"/>
        <path data-name="패스 46" d="M57.211 4.565a1.366 1.366 0 0 1-1.045-.4 1.557 1.557 0 0 1-.379-1.109 1.709 1.709 0 0 1 .353-1.133 1.178 1.178 0 0 1 .96-.423 1.151 1.151 0 0 1 .889.36 1.383 1.383 0 0 1 .331.975v.293h-2.03a1.134 1.134 0 0 0 .256.766.89.89 0 0 0 .687.261 2.292 2.292 0 0 0 .45-.042 2.579 2.579 0 0 0 .5-.162v.426a2.42 2.42 0 0 1-.461.148 2.662 2.662 0 0 1-.509.043m-.123-2.674a.7.7 0 0 0-.55.224 1.043 1.043 0 0 0-.24.622h1.506a.96.96 0 0 0-.191-.631.659.659 0 0 0-.526-.215" transform="translate(-11.797 -.317)" style="fill:#56575a"/>
        <path data-name="패스 47" d="M63.259 4.261h-.475V1.507c0-.244.008-.471.022-.679a1.714 1.714 0 0 1-.162.151l-.6.5-.253-.326 1.067-.832h.4z" transform="translate(-13.066 -.068)" style="fill:#56575a"/>
        <path data-name="패스 48" d="M68.114 1.988q0 2.312-1.814 2.312a1.8 1.8 0 0 1-.5-.054v-.415a1.453 1.453 0 0 0 .485.073 1.354 1.354 0 0 0 .725-.177 1.113 1.113 0 0 0 .435-.514 2.482 2.482 0 0 0 .171-.9h-.035a1.045 1.045 0 0 1-.938.458 1.092 1.092 0 0 1-.826-.317 1.2 1.2 0 0 1-.306-.874 1.349 1.349 0 0 1 .342-.97 1.2 1.2 0 0 1 .916-.362 1.228 1.228 0 0 1 .707.207 1.3 1.3 0 0 1 .467.6 2.446 2.446 0 0 1 .162.931M66.777.659a.714.714 0 0 0-.572.24 1.012 1.012 0 0 0-.2.677.856.856 0 0 0 .192.6.727.727 0 0 0 .562.209.984.984 0 0 0 .442-.1.791.791 0 0 0 .313-.265.625.625 0 0 0 .113-.353 1.2 1.2 0 0 0-.106-.5.907.907 0 0 0-.3-.371.75.75 0 0 0-.442-.136" transform="translate(-13.855 -.053)" style="fill:#56575a"/>
        <path data-name="패스 49" d="m69.99 4.262 1.617-3.5H69.48V.321h2.644V.7l-1.6 3.566z" transform="translate(-14.693 -.068)" style="fill:#56575a"/>
        <path data-name="패스 50" d="M76.134 2.27a2.853 2.853 0 0 1-.325 1.53 1.1 1.1 0 0 1-.987.5 1.084 1.084 0 0 1-.973-.516 2.814 2.814 0 0 1-.332-1.513 2.876 2.876 0 0 1 .32-1.528A1.2 1.2 0 0 1 75.8.76a2.793 2.793 0 0 1 .335 1.509m-2.129 0a2.9 2.9 0 0 0 .194 1.238.7.7 0 0 0 1.249-.007 2.894 2.894 0 0 0 .195-1.228 2.872 2.872 0 0 0-.195-1.221.7.7 0 0 0-1.249-.011 2.888 2.888 0 0 0-.193 1.229" transform="translate(-15.546 -.052)" style="fill:#56575a"/>
    </g>
</svg>
