<svg xmlns="http://www.w3.org/2000/svg" width="95.719" height="13.597" viewBox="0 0 95.719 13.597">
    <g data-name="그룹 5164">
        <g data-name="그룹 5162">
            <path data-name="패스 425" d="M0 0h3.452c1.9 0 2.916 1.084 2.916 2.622a2.286 2.286 0 0 1-1.531 2.327 2.657 2.657 0 0 1 1.885 2.633 2.922 2.922 0 0 1-3.217 3.075H0zm3.2 4.583c1.714 0 2.362-.683 2.362-1.921A1.851 1.851 0 0 0 3.493.76H.748v3.823zM.748 9.9h2.793a2.162 2.162 0 0 0 2.391-2.271c0-1.355-.807-2.286-2.8-2.286H.748z" style="fill:#212322"/>
            <path data-name="패스 426" d="M18.459 11.211a9.538 9.538 0 0 0 .1 1.449h-.677a5.238 5.238 0 0 1-.13-1.172 2.313 2.313 0 0 1-2.321 1.355 2.183 2.183 0 0 1-2.351-2.286c0-1.673 1.2-2.439 3.328-2.439h1.343V7.34c0-.76-.212-1.779-1.826-1.779a1.572 1.572 0 0 0-1.8 1.432h-.707a2.258 2.258 0 0 1 2.525-2.133c1.614 0 2.521.73 2.521 2.4v3.947zm-.7-2.439h-1.38c-1.573 0-2.545.442-2.545 1.75a1.528 1.528 0 0 0 1.626 1.614c2.027 0 2.309-1.449 2.309-3.093v-.277z" transform="translate(-5.374 -1.997)" style="fill:#212322"/>
            <path data-name="패스 427" d="M25.312 7.12c0-1.278-.012-1.826-.012-2.074h.7c.012.242.029.73.029 1.708a2.7 2.7 0 0 1 2.458-1.884v.819c-1.473.106-2.462 1.2-2.462 3.016v3.959h-.707V7.12z" transform="translate(-10.395 -2.001)" style="fill:#212322"/>
            <path data-name="패스 428" d="M38.108 10.56c0 .748.012 1.932.012 2.221h-.677a12.972 12.972 0 0 1-.041-1.326 2.173 2.173 0 0 1-2.28 1.508c-1.019 0-2.321-.424-2.321-2.757V5.17h.7v4.86c0 1.113.324 2.191 1.726 2.191 1.585 0 2.18-.96 2.18-3.14V5.17h.707z" transform="translate(-13.477 -2.124)" style="fill:#212322"/>
            <path data-name="패스 429" d="M44.542 6.963c0-.672 0-1.308-.012-1.921h.7c.029.242.041 1.237.029 1.449a2.329 2.329 0 0 1 2.346-1.631c1.261 0 2.38.76 2.38 2.863v4.937h-.707V7.847c0-1.355-.524-2.239-1.756-2.239-1.685 0-2.268 1.508-2.268 3.169v3.883h-.707v-5.7z" transform="translate(-18.297 -1.997)" style="fill:#212322"/>
            <path data-name="패스 430" d="M56.759 10.557a1.9 1.9 0 0 0 2.009 1.585c1.261 0 1.767-.624 1.767-1.479s-.342-1.3-1.926-1.7c-1.826-.471-2.28-1.066-2.28-2.074a2.081 2.081 0 0 1 2.338-2.029 2.315 2.315 0 0 1 2.48 2.133h-.707a1.7 1.7 0 0 0-1.8-1.432c-1.2 0-1.585.654-1.585 1.267 0 .7.342 1.049 1.738 1.414 2 .518 2.492 1.219 2.492 2.362a2.262 2.262 0 0 1-2.533 2.239 2.5 2.5 0 0 1-2.716-2.286h.725z" transform="translate(-23.026 -1.997)" style="fill:#212322"/>
            <path data-name="패스 431" d="M73.038 8.841c0 2.115-1.09 4.006-3.2 4.006-1.915 0-3.1-1.691-3.1-3.988 0-2.18 1.119-3.988 3.169-3.988 1.885 0 3.128 1.585 3.128 3.976m-5.549.018c0 1.814.907 3.275 2.409 3.275s2.392-1.355 2.392-3.275c0-1.8-.848-3.275-2.421-3.275s-2.38 1.449-2.38 3.275" transform="translate(-27.423 -2.001)" style="fill:#212322"/>
            <path data-name="패스 432" d="M79.682 6.963c0-.672 0-1.308-.012-1.921h.7c.029.242.041 1.237.029 1.449a2.329 2.329 0 0 1 2.346-1.631c1.261 0 2.38.76 2.38 2.863v4.937h-.707V7.847c0-1.355-.524-2.239-1.756-2.239-1.685 0-2.268 1.508-2.268 3.169v3.883h-.707v-5.7z" transform="translate(-32.736 -1.997)" style="fill:#212322"/>
        </g>
        <g data-name="그룹 5163">
            <path data-name="패스 433" d="M101.616 10.721h-1.449a5.168 5.168 0 0 1-.159-1.155 3.532 3.532 0 0 1-3.1 1.326c-3.016 0-4.678-2.274-4.683-5.237C92.22 2.526 93.993.17 97.227.17c2.592 0 4.153 1.437 4.424 3.24H99.7a2.32 2.32 0 0 0-2.5-1.685c-2.233 0-2.963 1.844-2.957 3.841 0 1.915.8 3.759 2.957 3.753 2.068 0 2.492-1.414 2.492-2.627v-.1h-2.5V4.971l4.418-.006.012 5.756z" transform="translate(-37.892 -.07)" style="fill:#212322"/>
            <path data-name="패스 434" d="M111.905 10.262a1.437 1.437 0 0 0 1.561 1.09c.878 0 1.214-.353 1.208-.9 0-.571-.33-.813-1.526-1.113-2.348-.591-2.763-1.339-2.763-2.417 0-1.125.778-2.292 2.928-2.292s2.946 1.237 3.022 2.292H114.6a1.206 1.206 0 0 0-1.367-.948c-.807 0-1.06.383-1.06.789 0 .448.259.672 1.532.978 2.427.583 2.816 1.432 2.822 2.574 0 1.308-.972 2.415-3.122 2.421-2.168 0-3.116-1.09-3.287-2.462h1.791z" transform="translate(-45.247 -1.903)" style="fill:#212322"/>
            <path data-name="패스 435" d="M124.634.252v3.735a2.439 2.439 0 0 1 2.221-1.172c1.331 0 2.521.789 2.521 2.957v4.954h-1.8V6.055c-.012-1.113-.424-1.708-1.367-1.708-1.219 0-1.573.9-1.567 2.233v4.147h-1.809L122.82.24h1.814z" transform="translate(-50.465 -.099)" style="fill:#212322"/>
            <path data-name="패스 436" d="M143.3 8.61c0 2.3-1.314 4.065-3.664 4.071-2.268 0-3.611-1.708-3.617-4.024 0-2.356 1.349-4.077 3.694-4.077 2.168 0 3.576 1.6 3.582 4.03zm-5.426.024c0 1.561.7 2.563 1.809 2.557 1.137 0 1.773-.984 1.767-2.557 0-1.661-.648-2.569-1.8-2.569-1.113 0-1.779.884-1.773 2.563z" transform="translate(-55.889 -1.882)" style="fill:#212322"/>
            <path data-name="패스 437" d="M152.266 11.7v3.764h-1.8l-.012-8.86c0-.63 0-1.261-.018-1.873h1.764a9.849 9.849 0 0 1 .059 1.049 2.418 2.418 0 0 1 2.274-1.231c1.7 0 2.993 1.467 3 3.853 0 2.739-1.443 4.247-3.264 4.253a2.127 2.127 0 0 1-2-.954zm3.411-3.222c0-1.49-.619-2.4-1.7-2.4-1.308 0-1.791.86-1.785 2.533 0 1.6.43 2.539 1.7 2.539 1.19 0 1.791-.978 1.791-2.669z" transform="translate(-61.814 -1.87)" style="fill:#212322"/>
        </g>
    </g>
</svg>
