<svg xmlns="http://www.w3.org/2000/svg" width="110.877" height="11.184" viewBox="0 0 110.877 11.184">
    <path data-name="빼기 7" d="m2695.984-1861.917-.22-.028a2.938 2.938 0 0 0-.41-.028h-.827a2.644 2.644 0 0 0-.4.028l-.046.006-.028-.038c-.136-.191-.337-.469-.638-.883s-.609-.825-.945-1.261c-.355-.458-.71-.909-1.058-1.338s-.671-.8-.963-1.1h-.424v.948c0 .634.011 1.246.034 1.82.024.634.05 1.212.078 1.767v.086l-.088-.007c-.2-.018-.438-.027-.68-.027s-.478.009-.681.027l-.087.007.005-.086c.029-.614.055-1.209.076-1.767.024-.638.036-1.25.036-1.82v-2.413c0-.571-.012-1.182-.036-1.813-.023-.581-.048-1.175-.076-1.816v-.086l.085.007c.3.021.56.037.8.049.264.014.517.021.75.021.3 0 .582-.012.839-.034s.5-.034.743-.034a5.926 5.926 0 0 1 1.2.112 2.849 2.849 0 0 1 .958.382 1.955 1.955 0 0 1 .657.708 2.245 2.245 0 0 1 .24 1.089 2.227 2.227 0 0 1-.312 1.2 2.89 2.89 0 0 1-.757.821 3.7 3.7 0 0 1-.951.5 5.048 5.048 0 0 1-.79.214l.019.024.364.465c.205.264.427.545.658.834s.473.592.759.954c.252.32.506.641.757.953s.478.591.686.833.386.444.514.572l.157.156zm-4.589-9.146c-.33 0-.6.007-.809.021a9.807 9.807 0 0 0-.479.04l-.053 1.464a43.654 43.654 0 0 0-.028 1.512v.735a2.5 2.5 0 0 0 .356.043c.141.008.278.013.408.013a4.855 4.855 0 0 0 .988-.095 2.547 2.547 0 0 0 .837-.335 1.946 1.946 0 0 0 .628-.635 1.859 1.859 0 0 0 .248-1 1.753 1.753 0 0 0-.193-.867 1.545 1.545 0 0 0-.5-.542 1.905 1.905 0 0 0-.674-.277 3.717 3.717 0 0 0-.729-.077zm-43.154 9.146-.219-.028a2.948 2.948 0 0 0-.411-.028h-.828a2.634 2.634 0 0 0-.4.028l-.045.006-.029-.038c-.143-.2-.363-.506-.637-.883-.291-.4-.609-.825-.946-1.261-.35-.454-.706-.9-1.058-1.338s-.675-.8-.962-1.1h-.423v.948c0 .618.011 1.231.033 1.82.022.569.048 1.147.079 1.767v.086l-.087-.007c-.2-.018-.439-.027-.681-.027s-.477.009-.68.027l-.088.007.005-.086c.029-.6.054-1.182.076-1.767.023-.6.035-1.217.035-1.82v-2.413c0-.6-.012-1.214-.035-1.813-.021-.534-.045-1.111-.076-1.816v-.086l.085.007c.3.021.556.036.8.049.265.014.517.021.751.021.3 0 .582-.012.839-.034s.5-.034.744-.034a5.914 5.914 0 0 1 1.2.112 2.848 2.848 0 0 1 .959.382 1.98 1.98 0 0 1 .657.708 2.252 2.252 0 0 1 .24 1.089 2.226 2.226 0 0 1-.313 1.2 2.894 2.894 0 0 1-.757.821 3.666 3.666 0 0 1-.951.5 5.062 5.062 0 0 1-.79.214l.182.231.2.257c.153.2.388.5.659.834.225.282.488.611.758.954.244.309.5.639.758.953s.478.59.685.833.386.443.515.572l.156.156zm-4.59-9.146c-.328 0-.6.007-.808.021-.179.011-.34.025-.479.04l-.053 1.464c-.018.5-.027 1.008-.027 1.512v.735a2.514 2.514 0 0 0 .356.043c.141.008.278.013.408.013a4.853 4.853 0 0 0 .988-.095 2.565 2.565 0 0 0 .838-.335 1.964 1.964 0 0 0 .628-.635 1.855 1.855 0 0 0 .248-1 1.753 1.753 0 0 0-.194-.867 1.551 1.551 0 0 0-.5-.542 1.922 1.922 0 0 0-.675-.277 3.719 3.719 0 0 0-.731-.077zm-40.427 9.146-.222-.028a2.9 2.9 0 0 0-.408-.028h-.829a2.673 2.673 0 0 0-.4.028l-.045.006-.026-.038q-.2-.285-.612-.847l-.026-.036a49.9 49.9 0 0 0-.946-1.261c-.349-.453-.705-.9-1.058-1.338s-.678-.807-.963-1.1h-.423v.948c0 .626.011 1.238.034 1.82.026.665.051 1.243.077 1.767v.086l-.087-.007c-.2-.018-.439-.027-.681-.027s-.477.009-.68.027l-.087.007v-.087c.028-.565.051-1.111.078-1.766.023-.611.034-1.223.034-1.82v-2.413c0-.6-.011-1.208-.034-1.813l-.007-.182c-.024-.575-.045-1.1-.07-1.634v-.086l.084.007c.3.021.559.036.8.049.264.014.516.021.749.021.3 0 .582-.012.839-.034s.5-.034.744-.034a5.907 5.907 0 0 1 1.2.112 2.85 2.85 0 0 1 .959.382 1.958 1.958 0 0 1 .655.708 2.23 2.23 0 0 1 .243 1.089 2.215 2.215 0 0 1-.314 1.2 2.885 2.885 0 0 1-.755.821 3.7 3.7 0 0 1-.953.5 5.064 5.064 0 0 1-.788.214l.14.179.241.309c.176.226.379.484.658.834.263.329.5.628.758.954.236.3.5.635.757.953s.486.6.687.833c.228.267.391.449.514.572l.158.156zm-4.59-9.146c-.33 0-.6.007-.809.021-.18.011-.341.025-.478.04l-.054 1.464c-.019.483-.028.992-.028 1.512v.735a2.533 2.533 0 0 0 .355.043c.141.008.278.013.408.013a4.865 4.865 0 0 0 .989-.095 2.569 2.569 0 0 0 .838-.335 1.977 1.977 0 0 0 .627-.635 1.863 1.863 0 0 0 .247-1 1.76 1.76 0 0 0-.193-.867 1.543 1.543 0 0 0-.5-.542 1.907 1.907 0 0 0-.675-.277 3.72 3.72 0 0 0-.728-.077zm71.188 9.138-.147-.021a2.425 2.425 0 0 0-.362-.028h-.743a2.391 2.391 0 0 0-.36.028l-.066.01-.019-.063c-.061-.2-.149-.463-.264-.774-.107-.29-.232-.61-.372-.953l-.413-1.009c-.14-.341-.258-.634-.374-.928-.331-.01-.6-.017-.859-.021-.3 0-.6-.006-.9-.006s-.6 0-.883.006-.582.014-.8.021c-.287.7-.555 1.382-.8 2.034s-.427 1.21-.545 1.63l-.018.062-.064-.008a4.5 4.5 0 0 0-.51-.027 4.485 4.485 0 0 0-.51.027l-.136.016.057-.124c.722-1.559 1.468-3.2 2.217-4.88s1.48-3.343 2.173-4.936l.02-.046h.367l.019.046.281.676v.009l.447 1.075a512.661 512.661 0 0 0 1.613 3.836 197.207 197.207 0 0 0 1.41 3.239c.186.419.343.748.467.977l.071.131zm-4.824-7.832-1.415 3.3c.218 0 .429.006.645.013.264.01.534.015.827.015.22 0 .446 0 .713-.008.22 0 .446-.009.671-.016l-1.441-3.3zm-40.394 7.827-.1-.017a1.924 1.924 0 0 0-.317-.025h-.659a1.94 1.94 0 0 0-.316.025l-.082.014-.008-.082-.307-3.619a95.355 95.355 0 0 0-.357-3.382 394.639 394.639 0 0 0-1.809 3.347 54.662 54.662 0 0 0-1.772 3.65l-.02.045h-.224l-.021-.045a122.717 122.717 0 0 0-1.759-3.54 283.453 283.453 0 0 1-1.752-3.441q-.063.559-.135 1.176l-.058.5a93.476 93.476 0 0 0-.217 2c-.063.629-.12 1.256-.169 1.864-.046.574-.07 1.056-.07 1.431v.088l-.085-.011a3.881 3.881 0 0 0-.481-.027 3.892 3.892 0 0 0-.481.027l-.1.013.017-.1c.132-.821.26-1.628.379-2.4.147-.95.271-1.78.379-2.538.123-.864.236-1.711.336-2.517.1-.791.189-1.585.268-2.362l.005-.068h.356l.02.043c.638 1.313 1.3 2.615 1.957 3.868.63 1.2 1.3 2.457 2 3.733l.2-.377.14-.262q.268-.5.617-1.143c.283-.523.522-.966.749-1.4l.208-.389.607-1.133c.275-.514.551-1.024.821-1.515s.523-.959.758-1.388l.021-.041h.3l.009.067c.11.974.2 1.825.287 2.6s.173 1.595.274 2.468q.14 1.215.28 2.4c.091.767.194 1.557.308 2.347l.016.1zm3.25-.009.007-.086c.029-.6.054-1.18.076-1.767s.035-1.2.035-1.82v-2.413c0-.619-.012-1.229-.035-1.813s-.048-1.175-.076-1.815l-.005-.093.093.014c.111.016.23.033.348.048a2.624 2.624 0 0 0 .328.021 2.6 2.6 0 0 0 .327-.021c.094-.011.2-.026.349-.048l.092-.014v.093c-.033.719-.058 1.279-.078 1.815a44.95 44.95 0 0 0-.035 1.813v2.413c0 .638.012 1.25.035 1.82.02.538.044 1.1.078 1.767v.086l-.088-.006a8.263 8.263 0 0 0-1.361 0l-.087.008zm43.88 0 .006-.085c.024-.525.052-1.138.076-1.766.023-.6.035-1.218.035-1.82v-2.413c0-.6-.012-1.214-.035-1.813q-.03-.757-.064-1.54v-.1l-.008-.173v-.086l.086.007c.245.021.467.036.679.049.232.015.459.022.676.022.1 0 .227 0 .4-.015.143-.008.312-.016.486-.021.153 0 .3-.011.466-.022s.282-.013.383-.013c.156 0 .352.007.523.013a4.3 4.3 0 0 1 .665.086 3.769 3.769 0 0 1 .694.215 2 2 0 0 1 .635.423 2.047 2.047 0 0 1 .46.691 2.65 2.65 0 0 1 .174 1.018 2.668 2.668 0 0 1-.413 1.545 2.967 2.967 0 0 1-1.008.92 3.96 3.96 0 0 1-1.257.444 7.1 7.1 0 0 1-1.17.113c-.212 0-.411 0-.592-.007a7.502 7.502 0 0 1-.467-.029v.689c0 .624.011 1.236.034 1.82.023.63.052 1.247.076 1.767v.085l-.086-.005c-.2-.018-.44-.027-.682-.027s-.477.009-.68.027l-.086.007zm1.421-9.124v4.028a4.1 4.1 0 0 0 .891.1 4.45 4.45 0 0 0 .909-.1 2.324 2.324 0 0 0 .822-.348 1.9 1.9 0 0 0 .607-.688 2.406 2.406 0 0 0 .237-1.135 2.38 2.38 0 0 0-.162-.95 1.316 1.316 0 0 0-.445-.558 1.75 1.75 0 0 0-.705-.275 5.707 5.707 0 0 0-.969-.075zm-18.844 9.124.006-.085.01-.224c.02-.446.046-1 .066-1.542.023-.582.035-1.195.035-1.82v-2.413c0-.626-.012-1.236-.035-1.813-.017-.443-.036-.9-.055-1.328l-.021-.488v-.086l.087.007c.242.021.464.036.678.049.233.015.46.022.676.022.1 0 .23 0 .4-.015.193-.011.348-.017.486-.021.153 0 .31-.012.468-.022a7.502 7.502 0 0 1 .907 0 4.271 4.271 0 0 1 .663.086 3.761 3.761 0 0 1 .695.215 2 2 0 0 1 .635.423 2.084 2.084 0 0 1 .459.691 2.659 2.659 0 0 1 .173 1.018 2.66 2.66 0 0 1-.413 1.545 2.978 2.978 0 0 1-1.008.92 3.949 3.949 0 0 1-1.257.444 7.1 7.1 0 0 1-1.171.113c-.211 0-.41 0-.592-.007a7.426 7.426 0 0 1-.469-.029v.689c0 .6.012 1.213.036 1.82.019.494.046 1.141.077 1.767v.085l-.089-.005c-.2-.018-.438-.027-.68-.027s-.477.009-.68.027l-.087.007zm1.42-9.124v4.028a4.117 4.117 0 0 0 .892.1 4.461 4.461 0 0 0 .91-.1 2.336 2.336 0 0 0 .822-.348 1.907 1.907 0 0 0 .607-.688 2.406 2.406 0 0 0 .236-1.135 2.372 2.372 0 0 0-.162-.95 1.323 1.323 0 0 0-.443-.558 1.781 1.781 0 0 0-.708-.275 5.709 5.709 0 0 0-.968-.075zm-68.772 9.124.006-.085c.026-.547.051-1.125.077-1.766.023-.587.034-1.2.034-1.82v-2.413c0-.621-.011-1.231-.034-1.813-.026-.666-.052-1.26-.077-1.816v-.086l.085.007c.248.021.47.037.678.049.233.015.46.022.676.022.1 0 .228 0 .4-.015.193-.011.343-.017.486-.021s.31-.012.467-.022.282-.013.383-.013c.136 0 .3.005.521.013a4.339 4.339 0 0 1 .666.086 3.86 3.86 0 0 1 .694.215 2.009 2.009 0 0 1 .634.423 2.05 2.05 0 0 1 .458.691 2.626 2.626 0 0 1 .175 1.018 2.66 2.66 0 0 1-.413 1.545 2.992 2.992 0 0 1-1.008.92 3.957 3.957 0 0 1-1.258.444 7.087 7.087 0 0 1-1.169.113c-.212 0-.411 0-.592-.007a7.667 7.667 0 0 1-.469-.029v.689c0 .594.011 1.206.034 1.82.022.536.048 1.159.078 1.767l.006.085-.088-.005c-.2-.018-.44-.027-.681-.027s-.477.009-.68.027l-.088.007zm1.42-9.124v4.028a4.115 4.115 0 0 0 .892.1 4.454 4.454 0 0 0 .909-.1 2.322 2.322 0 0 0 .822-.348 1.9 1.9 0 0 0 .607-.688 2.392 2.392 0 0 0 .236-1.135 2.366 2.366 0 0 0-.162-.95 1.318 1.318 0 0 0-.443-.558 1.763 1.763 0 0 0-.707-.275 5.7 5.7 0 0 0-.968-.075zm97.5 9.121h-.106a28.356 28.356 0 0 0-1.251-.027h-2.547c-.432 0-.861.009-1.274.027h-.083v-.083c.024-.524.053-1.146.077-1.788.024-.622.036-1.231.036-1.812v-2.413c0-.58-.012-1.193-.036-1.82-.02-.537-.043-1.09-.077-1.794v-.084h.084c.382.017.792.033 1.254.048a35.43 35.43 0 0 0 2.499 0c.442-.014.85-.03 1.247-.048h.1l-.019.1a2.223 2.223 0 0 0-.04.405 2.226 2.226 0 0 0 .04.406l.02.1-.1-.005a83.78 83.78 0 0 1-.822-.057l-.784-.056c-.3-.02-.623-.036-.9-.05-.335-.013-.705-.02-1.1-.02-.01.31-.021.559-.033.782-.013.251-.02.552-.02.923 0 .323 0 .7.005 1.065 0 .244.007.476.007.71h.121c.323 0 .63 0 .91-.012.307-.008.609-.02.9-.035l.367-.02h.072l.311-.017c.213-.013.426-.029.649-.049l.1-.01-.02.1a2.206 2.206 0 0 0-.041.421 2.125 2.125 0 0 0 .041.406l.021.1-.105-.012a16.365 16.365 0 0 0-.844-.07c-.3-.018-.629-.03-.964-.036l-.913-.014-.6-.007c0 .055 0 .111-.005.171v.03c0 .1-.005.217-.005.368v1.389c0 .543 0 .975.005 1.317.005.3.011.538.018.711h.91a26.363 26.363 0 0 0 2.007-.079 6.635 6.635 0 0 0 .783-.1l.123-.027-.034.122a.843.843 0 0 0-.032.2c0 .061-.008.141-.008.214a1.19 1.19 0 0 0 .04.342l.03.1zm-47.743 0h-.106c-.4-.018-.826-.027-1.252-.027h-2.546c-.431 0-.859.009-1.274.027h-.083v-.083c.023-.5.052-1.148.076-1.788.024-.624.037-1.234.037-1.812v-2.413c0-.578-.012-1.19-.037-1.82s-.052-1.267-.076-1.794v-.084h.084c.383.017.794.033 1.255.048a35.359 35.359 0 0 0 2.497 0c.444-.014.852-.03 1.247-.048h.1l-.019.1a2.209 2.209 0 0 0-.041.405 2.209 2.209 0 0 0 .041.406l.02.1-.1-.005c-.31-.02-.578-.038-.821-.057l-.09-.006h-.01l-.686-.048c-.3-.02-.623-.036-.9-.05-.335-.013-.705-.02-1.1-.02-.01.286-.02.534-.032.782s-.022.557-.022.923 0 .737.007 1.065c.007.347.008.578.008.71h.122c.323 0 .629 0 .908-.012.312-.008.613-.02.9-.035l.346-.019h.08l.323-.018c.209-.013.422-.029.65-.049l.1-.01-.02.1a2.168 2.168 0 0 0-.04.421 2.084 2.084 0 0 0 .04.406l.021.1-.1-.012a16.419 16.419 0 0 0-.845-.07c-.305-.018-.629-.03-.964-.036l-.913-.014-.6-.007c0 .076 0 .14-.008.2 0 .1-.007.215-.007.368v1.389c0 .551 0 .981.007 1.317 0 .258.01.523.019.711h.908a26.441 26.441 0 0 0 2.007-.079 6.538 6.538 0 0 0 .783-.1l.123-.027-.034.122a.968.968 0 0 0-.031.2 3.083 3.083 0 0 0-.008.214 1.223 1.223 0 0 0 .039.342l.031.1zm-27.549 0h-.105a28.18 28.18 0 0 0-1.253-.027h-2.545c-.432 0-.86.009-1.274.027h-.083v-.083c.028-.58.054-1.182.077-1.789.024-.591.036-1.2.036-1.812v-2.413c0-.611-.012-1.224-.036-1.82s-.047-1.187-.077-1.794v-.084h.083c.384.017.794.033 1.255.048a35.471 35.471 0 0 0 2.499 0 87.2 87.2 0 0 0 1.248-.048h.1l-.019.1a2.091 2.091 0 0 0-.041.405 2.09 2.09 0 0 0 .041.406l.019.1-.1-.005c-.3-.019-.581-.038-.82-.057h-.036l-.75-.053c-.289-.019-.605-.035-.9-.05-.333-.013-.7-.02-1.1-.02-.012.356-.021.583-.032.782-.014.257-.021.567-.021.923 0 .379 0 .737.007 1.065v.135c0 .239.006.429.006.575h.121c.322 0 .628 0 .909-.012.309-.008.609-.02.895-.035l.384-.021h.055l.311-.017c.213-.013.426-.029.65-.049l.1-.01-.02.1a2.172 2.172 0 0 0-.041.421 2.09 2.09 0 0 0 .041.406l.021.1-.105-.012c-.221-.026-.49-.048-.844-.07a23.7 23.7 0 0 0-.965-.036l-.912-.014-.6-.007v.068c0 .043 0 .087-.005.133 0 .1-.007.215-.007.368v1.389c0 .551 0 .982.007 1.317 0 .259.01.5.018.711h.909a26.324 26.324 0 0 0 2.007-.079 6.539 6.539 0 0 0 .783-.1l.123-.027-.034.122a1 1 0 0 0-.032.2c0 .082-.007.152-.007.214a1.2 1.2 0 0 0 .039.342l.031.1z" transform="translate(-2586.44 1872.417)" style="fill:#333;stroke:transparent;stroke-miterlimit:10"/>
</svg>
