<svg xmlns="http://www.w3.org/2000/svg" width="118.251" height="20.909" viewBox="0 0 118.251 20.909">
    <defs>
        <clipPath id="1j60blu4la">
            <path data-name="사각형 244" style="fill:none" d="M0 0h118.251v20.909H0z"/>
        </clipPath>
    </defs>
    <g data-name="그룹 18" style="clip-path:url(#1j60blu4la)">
        <path data-name="패스 5" d="M4.716 7.306a7.4 7.4 0 0 1 1.6.163 3.386 3.386 0 0 1 1.262.538A2.559 2.559 0 0 1 8.4 9.013a3.712 3.712 0 0 1 .292 1.547 2.985 2.985 0 0 1-.531 1.785 2.673 2.673 0 0 1-1.583 1.016v.039a2.839 2.839 0 0 1 1.859.913 3.014 3.014 0 0 1 .685 2.066 4.73 4.73 0 0 1-.214 1.437 2.835 2.835 0 0 1-.735 1.194 3.7 3.7 0 0 1-1.35.818 6.028 6.028 0 0 1-2.066.3H0V7.306zm-1.1 5.263a2.975 2.975 0 0 0 1.714-.385 1.5 1.5 0 0 0 .539-1.3 1.544 1.544 0 0 0-.49-1.293 2.566 2.566 0 0 0-1.548-.376H2.819v3.358zm.294 5.66a2.94 2.94 0 0 0 1.646-.415 1.693 1.693 0 0 0 .626-1.527 2.24 2.24 0 0 0-.167-.924 1.515 1.515 0 0 0-.451-.593 1.676 1.676 0 0 0-.675-.316 3.962 3.962 0 0 0-.86-.088h-1.21v3.863z" transform="translate(0 .527)" style="fill:#56575a"/>
        <path data-name="패스 6" d="M9.626 13a3.066 3.066 0 0 1 .294-1.41 2.525 2.525 0 0 1 .794-.917 3.277 3.277 0 0 1 1.172-.5 6.658 6.658 0 0 1 1.441-.152 7.23 7.23 0 0 1 1.957.215 2.711 2.711 0 0 1 1.156.61 2 2 0 0 1 .559.945 4.585 4.585 0 0 1 .147 1.192v5.084a6.226 6.226 0 0 0 .07 1.06 3.3 3.3 0 0 0 .263.806h-2.585a1.944 1.944 0 0 1-.206-.494 19.88 19.88 0 0 1-.128-.507h-.039a2.215 2.215 0 0 1-1.086.975 4.711 4.711 0 0 1-1.6.224 2.824 2.824 0 0 1-1.194-.224 1.959 1.959 0 0 1-.783-.619 2.557 2.557 0 0 1-.429-.888 3.513 3.513 0 0 1-.14-.979 3.873 3.873 0 0 1 .159-1.178 2.235 2.235 0 0 1 .478-.846 2.57 2.57 0 0 1 .822-.579 6.442 6.442 0 0 1 1.205-.414l1.526-.377a1.684 1.684 0 0 0 .843-.4 1.052 1.052 0 0 0 .234-.738 1.26 1.26 0 0 0-.283-.874 1.275 1.275 0 0 0-.97-.311 1.2 1.2 0 0 0-.939.341 1.307 1.307 0 0 0-.313.917v.269H9.626zm4.347 2.415a4.014 4.014 0 0 1-.567.17 2.163 2.163 0 0 0-1.177.539 1.439 1.439 0 0 0-.352 1.023 1.846 1.846 0 0 0 .235.952.833.833 0 0 0 .785.395 2.057 2.057 0 0 0 .567-.08 1.615 1.615 0 0 0 .536-.257 1.371 1.371 0 0 0 .557-1.149V15.1a2.46 2.46 0 0 1-.586.315" transform="translate(.67 .722)" style="fill:#56575a"/>
        <path data-name="패스 7" d="M20.533 10.271v1.3h.041a3.593 3.593 0 0 1 1-1.126A2.4 2.4 0 0 1 23 10.021c.079 0 .16 0 .244.009s.166.015.246.026v2.373c-.143-.014-.283-.02-.422-.028s-.278-.01-.42-.01a2.688 2.688 0 0 0-.7.092 2 2 0 0 0-.648.293 1.556 1.556 0 0 0-.47.541 1.753 1.753 0 0 0-.177.817v5.8h-2.7v-9.663z" transform="translate(1.294 .722)" style="fill:#56575a"/>
        <path data-name="패스 8" d="M29.079 18.788a2.441 2.441 0 0 1-1.088 1.023 3.629 3.629 0 0 1-1.526.3 2.757 2.757 0 0 1-1.934-.618 2.709 2.709 0 0 1-.675-2.075v-7.164h2.629v6.667a1.588 1.588 0 0 0 .268 1.05 1.111 1.111 0 0 0 .857.295q1.391 0 1.393-1.6v-6.412h2.631v9.663h-2.517v-1.129z" transform="translate(1.72 .739)" style="fill:#56575a"/>
        <path data-name="패스 9" d="M34.734 10.271v1.134h.04a2.574 2.574 0 0 1 1.086-1.053 3.369 3.369 0 0 1 1.52-.331 2.682 2.682 0 0 1 1.935.648 2.8 2.8 0 0 1 .678 2.1v7.168h-2.63v-6.664a1.583 1.583 0 0 0-.263-1.053 1.09 1.09 0 0 0-.857-.295q-1.389 0-1.391 1.6v6.411H32.22v-9.665z" transform="translate(2.323 .722)" style="fill:#56575a"/>
        <path data-name="패스 10" d="M58.862 10.271v1.134h.04a2.577 2.577 0 0 1 1.087-1.053 3.36 3.36 0 0 1 1.518-.331 2.679 2.679 0 0 1 1.934.648 2.782 2.782 0 0 1 .681 2.1v7.168H61.49v-6.664a1.6 1.6 0 0 0-.264-1.053 1.1 1.1 0 0 0-.858-.295q-1.391 0-1.393 1.6v6.411h-2.628v-9.665z" transform="translate(4.062 .722)" style="fill:#56575a"/>
        <path data-name="패스 11" d="M42.6 17.1a1.42 1.42 0 0 0 .361 1.014A1.369 1.369 0 0 0 44 18.5a1.606 1.606 0 0 0 1-.285 1.027 1.027 0 0 0 .371-.864.87.87 0 0 0-.294-.709 2.3 2.3 0 0 0-.683-.385l-1.9-.629a3.69 3.69 0 0 1-1.684-1.015 2.473 2.473 0 0 1-.567-1.68 2.93 2.93 0 0 1 .217-1.121 2.352 2.352 0 0 1 .683-.925 3.494 3.494 0 0 1 1.207-.629 5.907 5.907 0 0 1 1.769-.233 4.246 4.246 0 0 1 2.722.719 2.461 2.461 0 0 1 .881 2.025v.4H45.3a1.831 1.831 0 0 0-.265-1.1 1.088 1.088 0 0 0-.928-.35 1.548 1.548 0 0 0-.891.257.884.884 0 0 0-.382.782.987.987 0 0 0 .243.65 1.948 1.948 0 0 0 .93.484l1.627.5a3.746 3.746 0 0 1 1.8 1.034 2.627 2.627 0 0 1 .529 1.733 2.857 2.857 0 0 1-.3 1.34 2.66 2.66 0 0 1-.812.942 3.366 3.366 0 0 1-1.233.54 7.22 7.22 0 0 1-1.576.159 7.527 7.527 0 0 1-1.889-.2 2.83 2.83 0 0 1-1.2-.591 2.13 2.13 0 0 1-.615-.963 4.164 4.164 0 0 1-.176-1.264v-.342H42.6z" transform="translate(2.896 .722)" style="fill:#56575a"/>
        <path data-name="패스 12" d="M48.127 12.91a4.025 4.025 0 0 1 .7-1.587 3.1 3.1 0 0 1 1.283-.97 5.028 5.028 0 0 1 1.946-.332 5.362 5.362 0 0 1 2.017.295 2.787 2.787 0 0 1 1.276.963 4.1 4.1 0 0 1 .665 1.6 11.286 11.286 0 0 1 .2 2.227A9.879 9.879 0 0 1 56 17.293a4.008 4.008 0 0 1-.7 1.591 2.89 2.89 0 0 1-1.28.945 5.481 5.481 0 0 1-1.953.3 5.634 5.634 0 0 1-2.012-.277 2.694 2.694 0 0 1-1.275-.932 4.032 4.032 0 0 1-.666-1.6 11.3 11.3 0 0 1-.2-2.22 10.03 10.03 0 0 1 .217-2.194m2.527 3.558a4.322 4.322 0 0 0 .183 1.079 1.515 1.515 0 0 0 .443.7 1.16 1.16 0 0 0 .78.25 1.139 1.139 0 0 0 1.14-.789 7.841 7.841 0 0 0 .312-2.605 7.838 7.838 0 0 0-.312-2.6 1.137 1.137 0 0 0-1.14-.789 1.16 1.16 0 0 0-.78.25 1.5 1.5 0 0 0-.443.7 4.357 4.357 0 0 0-.183 1.079c-.027.421-.041.875-.041 1.366s.014.947.041 1.365" transform="translate(3.454 .722)" style="fill:#56575a"/>
        <path data-name="패스 13" d="M73.215 9.884A3.447 3.447 0 0 0 70.17 8.1a3.775 3.775 0 0 0-1.962.485 4.026 4.026 0 0 0-1.342 1.281 5.811 5.811 0 0 0-.772 1.805 8.7 8.7 0 0 0 0 4.123 5.79 5.79 0 0 0 .772 1.815 4.029 4.029 0 0 0 1.342 1.282 3.775 3.775 0 0 0 1.962.486 3.16 3.16 0 0 0 1.443-.324 3.405 3.405 0 0 0 1.111-.879 4.541 4.541 0 0 0 .756-1.3 5.871 5.871 0 0 0 .368-1.609h1.095a7.581 7.581 0 0 1-.5 2.141 5.31 5.31 0 0 1-1 1.615 4.2 4.2 0 0 1-1.44 1.024 4.587 4.587 0 0 1-1.838.358 4.924 4.924 0 0 1-2.371-.548 5.072 5.072 0 0 1-1.7-1.464 6.5 6.5 0 0 1-1.013-2.12 9.73 9.73 0 0 1 0-5.067A6.659 6.659 0 0 1 66.1 9.076 5.023 5.023 0 0 1 67.8 7.6a4.9 4.9 0 0 1 2.371-.547 4.826 4.826 0 0 1 1.6.267 4.485 4.485 0 0 1 1.416.8 4.6 4.6 0 0 1 1.061 1.3 4.746 4.746 0 0 1 .538 1.779H73.69a4.471 4.471 0 0 0-.475-1.318" transform="translate(4.668 .509)" style="fill:#56575a"/>
        <path data-name="패스 14" d="M75.875 12.079a2.6 2.6 0 0 1 .7-.968 2.771 2.771 0 0 1 1.035-.559 4.544 4.544 0 0 1 1.319-.181 5.052 5.052 0 0 1 1.092.12 2.508 2.508 0 0 1 .983.436 2.37 2.37 0 0 1 .705.91 3.607 3.607 0 0 1 .272 1.517v4.92c0 .456.2.683.594.683a.732.732 0 0 0 .324-.071v.951a5.526 5.526 0 0 1-.314.054 2.8 2.8 0 0 1-.345.017 1.4 1.4 0 0 1-.62-.115.86.86 0 0 1-.361-.336 1.264 1.264 0 0 1-.168-.511 4.8 4.8 0 0 1-.042-.654h-.03a8.051 8.051 0 0 1-.554.8 3.032 3.032 0 0 1-.627.584 2.784 2.784 0 0 1-.788.357 3.881 3.881 0 0 1-1.05.128 3.737 3.737 0 0 1-1.087-.152 2.372 2.372 0 0 1-.882-.486 2.252 2.252 0 0 1-.6-.844 3.088 3.088 0 0 1-.218-1.211 2.6 2.6 0 0 1 .387-1.518 2.485 2.485 0 0 1 1.023-.837 5.312 5.312 0 0 1 1.43-.4 88.45 88.45 0 0 1 1.614-.227 4.516 4.516 0 0 0 .563-.089.952.952 0 0 0 .4-.189.858.858 0 0 0 .251-.369 1.784 1.784 0 0 0 .085-.61 2.256 2.256 0 0 0-.166-.94 1.435 1.435 0 0 0-.467-.586 1.773 1.773 0 0 0-.692-.3 4.2 4.2 0 0 0-.843-.08 2.371 2.371 0 0 0-1.574.512 2.114 2.114 0 0 0-.646 1.641H75.57a4.159 4.159 0 0 1 .306-1.4m5.062 2.767a.573.573 0 0 1-.369.286 3.356 3.356 0 0 1-.481.128c-.432.081-.872.155-1.326.224a6.394 6.394 0 0 0-1.246.295 2.355 2.355 0 0 0-.924.567 1.433 1.433 0 0 0-.362 1.057 1.792 1.792 0 0 0 .152.76 1.909 1.909 0 0 0 .406.576 1.727 1.727 0 0 0 .6.369 1.989 1.989 0 0 0 .692.128 3.156 3.156 0 0 0 1.111-.2 2.639 2.639 0 0 0 .921-.575 2.864 2.864 0 0 0 .628-.914 3.06 3.06 0 0 0 .231-1.222v-1.476z" transform="translate(5.423 .747)" style="fill:#56575a"/>
        <path data-name="패스 15" d="M84.35 10.634V12.8h.034a3.505 3.505 0 0 1 1.2-1.742 2.886 2.886 0 0 1 1.935-.556v1.131a2.741 2.741 0 0 0-2.227.9 3.257 3.257 0 0 0-.636 1.071 3.951 3.951 0 0 0-.224 1.356v4.94h-1.017v-9.266z" transform="translate(6.014 .757)" style="fill:#56575a"/>
        <path data-name="패스 16" d="M94.26 20.129V18.37h-.035a2.669 2.669 0 0 1-.472.828 3.163 3.163 0 0 1-.714.637 3.615 3.615 0 0 1-.861.406 3.177 3.177 0 0 1-.908.142 3.253 3.253 0 0 1-2.812-1.446 4.776 4.776 0 0 1-.694-1.563 8.042 8.042 0 0 1 0-3.752 4.81 4.81 0 0 1 .694-1.562 3.5 3.5 0 0 1 1.164-1.072 3.308 3.308 0 0 1 1.648-.395 3.271 3.271 0 0 1 .908.128 2.954 2.954 0 0 1 1.51 1.024 2.676 2.676 0 0 1 .459.88h.033V7.306h1.012v12.823zm-5.555-3.2a4.216 4.216 0 0 0 .484 1.268 2.79 2.79 0 0 0 .844.9 2.133 2.133 0 0 0 1.237.352 2.492 2.492 0 0 0 1.359-.352 2.8 2.8 0 0 0 .9-.9 3.968 3.968 0 0 0 .5-1.268 6.722 6.722 0 0 0 0-2.855 3.936 3.936 0 0 0-.5-1.266 2.875 2.875 0 0 0-.9-.908 2.51 2.51 0 0 0-1.359-.348 2.147 2.147 0 0 0-1.237.348 2.867 2.867 0 0 0-.844.908 4.181 4.181 0 0 0-.484 1.266 6.769 6.769 0 0 0 0 2.855" transform="translate(6.311 .527)" style="fill:#56575a"/>
        <path data-name="패스 17" d="M100.881 1.555a1.211 1.211 0 1 1-1.68-.345 1.213 1.213 0 0 1 1.68.345" transform="translate(7.113 .073)" style="fill:#3278b2"/>
        <path data-name="패스 18" d="M107.694 11.9a1.212 1.212 0 1 1-1.679-.344 1.211 1.211 0 0 1 1.679.344" transform="translate(7.604 .818)" style="fill:#3278b2"/>
        <path data-name="패스 19" d="M97.908 4.082a1.212 1.212 0 1 1-1.561.707 1.212 1.212 0 0 1 1.561-.707" transform="translate(6.941 .288)" style="fill:#3278b2"/>
        <path data-name="패스 20" d="M109.5 8.444a1.211 1.211 0 1 1-1.559.707 1.211 1.211 0 0 1 1.559-.707" transform="translate(7.776 .603)" style="fill:#3278b2"/>
        <path data-name="패스 21" d="M96.99 7.873a1.211 1.211 0 1 1-.847 1.489 1.212 1.212 0 0 1 .847-1.489" transform="translate(6.928 .564)" style="fill:#3278b2"/>
        <path data-name="패스 22" d="M108.93 4.589a1.211 1.211 0 1 1-.847 1.489 1.21 1.21 0 0 1 .847-1.489" transform="translate(7.789 .327)" style="fill:#3278b2"/>
        <path data-name="패스 23" d="M98.474 11.481a1.212 1.212 0 1 1 .189 1.7 1.209 1.209 0 0 1-.189-1.7" transform="translate(7.08 .795)" style="fill:#3278b2"/>
        <path data-name="패스 24" d="M106.2 1.8a1.211 1.211 0 1 1 .19 1.7 1.21 1.21 0 0 1-.19-1.7" transform="translate(7.638 .097)" style="fill:#3278b2"/>
        <path data-name="패스 25" d="M101.8 13.526a1.211 1.211 0 1 1 1.155 1.266 1.209 1.209 0 0 1-1.155-1.266" transform="translate(7.339 .892)" style="fill:#3278b2"/>
        <path data-name="패스 26" d="M102.361 1.156a1.212 1.212 0 1 1 1.156 1.266 1.21 1.21 0 0 1-1.156-1.266" transform="translate(7.38)" style="fill:#3278b2"/>
        <path data-name="패스 27" d="M106.1 10.3a.75.75 0 1 1-1.252.824l-4.158-6.3a.753.753 0 0 1 .215-1.038.745.745 0 0 1 1.039.214z" transform="translate(7.251 .264)" style="fill:#3278b2"/>
        <path data-name="패스 28" d="M107.288 8.073a.749.749 0 1 1-.527 1.4L99.69 6.816a.75.75 0 0 1 .529-1.4z" transform="translate(7.152 .386)" style="fill:#3278b2"/>
        <path data-name="패스 29" d="M106.933 5.706a.749.749 0 1 1 .4 1.445l-7.282 2a.749.749 0 1 1-.4-1.444z" transform="translate(7.145 .409)" style="fill:#3278b2"/>
        <path data-name="패스 30" d="M105.175 4.148a.751.751 0 0 1 1.173.939l-4.712 5.9a.75.75 0 0 1-1.173-.936z" transform="translate(7.231 .279)" style="fill:#3278b2"/>
        <path data-name="패스 31" d="M102.688 3.823a.75.75 0 1 1 1.5.066l-.345 7.546a.75.75 0 1 1-1.5-.07z" transform="translate(7.378 .224)" style="fill:#3278b2"/>
        <path data-name="패스 32" d="M2.353 5.679h-.678V.915H0V.321h4.016v.594H2.353z" transform="translate(0 .023)" style="fill:#56575a"/>
        <path data-name="패스 33" d="M7.16 5.7V3.129a1.062 1.062 0 0 0-.217-.729.882.882 0 0 0-.684-.24 1.1 1.1 0 0 0-.9.341 1.764 1.764 0 0 0-.283 1.125V5.7h-.66V0h.66v1.67a3.692 3.692 0 0 1-.038.565h.044a1.232 1.232 0 0 1 .518-.459 1.653 1.653 0 0 1 .744-.164 1.553 1.553 0 0 1 1.1.35 1.482 1.482 0 0 1 .37 1.119V5.7z" transform="translate(.319)" style="fill:#56575a"/>
        <path data-name="패스 34" d="M10.473 5.667a1.857 1.857 0 0 1-1.421-.547 2.117 2.117 0 0 1-.515-1.508 2.324 2.324 0 0 1 .48-1.541 1.6 1.6 0 0 1 1.3-.574 1.564 1.564 0 0 1 1.209.489 1.88 1.88 0 0 1 .45 1.325v.4H9.22a1.541 1.541 0 0 0 .348 1.041 1.21 1.21 0 0 0 .934.355 3.116 3.116 0 0 0 .612-.057 3.506 3.506 0 0 0 .678-.221v.579a3.291 3.291 0 0 1-.626.2 3.619 3.619 0 0 1-.693.058m-.165-3.631a.957.957 0 0 0-.747.3 1.419 1.419 0 0 0-.326.846h2.048a1.306 1.306 0 0 0-.259-.858.9.9 0 0 0-.715-.293" transform="translate(.616 .108)" style="fill:#56575a"/>
        <path data-name="패스 35" d="M19.292 3a2.947 2.947 0 0 1-.651 2.023 2.3 2.3 0 0 1-1.818.737 2.329 2.329 0 0 1-1.831-.724 2.963 2.963 0 0 1-.646-2.043 2.943 2.943 0 0 1 .642-2.031 2.342 2.342 0 0 1 1.841-.719 2.3 2.3 0 0 1 1.814.731A2.945 2.945 0 0 1 19.292 3m-4.236 0a2.525 2.525 0 0 0 .45 1.62 1.6 1.6 0 0 0 1.317.556 1.59 1.59 0 0 0 1.308-.549A2.541 2.541 0 0 0 18.578 3a2.518 2.518 0 0 0-.444-1.618 1.586 1.586 0 0 0-1.3-.545 1.613 1.613 0 0 0-1.323.551A2.5 2.5 0 0 0 15.056 3" transform="translate(1.034 .017)" style="fill:#56575a"/>
        <path data-name="패스 36" d="M21.854 1.5a2.3 2.3 0 0 1 .473.044l-.08.608a2.005 2.005 0 0 0-.436-.05 1.068 1.068 0 0 0-.592.176 1.185 1.185 0 0 0-.427.486 1.512 1.512 0 0 0-.154.686v2.143h-.659V1.57h.542l.073.737h.03a1.742 1.742 0 0 1 .546-.6 1.236 1.236 0 0 1 .685-.2" transform="translate(1.44 .108)" style="fill:#56575a"/>
        <path data-name="패스 37" d="M22.822.578a.405.405 0 0 1 .111-.318.4.4 0 0 1 .277-.1.4.4 0 0 1 .269.1.4.4 0 0 1 .116.318.4.4 0 0 1-.116.322.389.389 0 0 1-.269.1.4.4 0 0 1-.277-.1.413.413 0 0 1-.111-.318m.711 5.112h-.659V1.666h.659z" transform="translate(1.645 .011)" style="fill:#56575a"/>
        <path data-name="패스 38" d="m27.376 5.557.021-.5h-.029a1.4 1.4 0 0 1-1.246.6 1.477 1.477 0 0 1-1.222-.534 2.39 2.39 0 0 1-.437-1.534 2.412 2.412 0 0 1 .441-1.531 1.6 1.6 0 0 1 2.469.047h.04l.087-.535h.524v4.09a1.758 1.758 0 0 1-.438 1.3 1.86 1.86 0 0 1-1.36.436 3.52 3.52 0 0 1-1.447-.257v-.607a3.111 3.111 0 0 0 1.484.315 1.092 1.092 0 0 0 .812-.3 1.128 1.128 0 0 0 .3-.832zm-1.155-.429a1.1 1.1 0 0 0 .884-.328 1.624 1.624 0 0 0 .277-1.054v-.157a1.954 1.954 0 0 0-.282-1.172 1.058 1.058 0 0 0-.9-.367.893.893 0 0 0-.782.4 2 2 0 0 0-.271 1.15 2 2 0 0 0 .27 1.14.91.91 0 0 0 .8.392" transform="translate(1.764 .108)" style="fill:#56575a"/>
        <path data-name="패스 39" d="M28.933.578a.4.4 0 0 1 .113-.318.422.422 0 0 1 .545 0 .392.392 0 0 1 .116.318.4.4 0 0 1-.117.322.412.412 0 0 1-.545 0 .41.41 0 0 1-.113-.318m.711 5.112h-.659V1.666h.659z" transform="translate(2.086 .011)" style="fill:#56575a"/>
        <path data-name="패스 40" d="M33.526 5.593V3.022a1.062 1.062 0 0 0-.218-.731.882.882 0 0 0-.684-.24 1.093 1.093 0 0 0-.9.343 1.758 1.758 0 0 0-.28 1.115v2.084h-.66V1.57h.532l.1.55h.036a1.246 1.246 0 0 1 .524-.46 1.693 1.693 0 0 1 .744-.16 1.5 1.5 0 0 1 1.1.359 1.521 1.521 0 0 1 .359 1.117v2.62z" transform="translate(2.219 .108)" style="fill:#56575a"/>
        <path data-name="패스 41" d="m37.617 5.593-.128-.571h-.03a1.685 1.685 0 0 1-.6.511 1.844 1.844 0 0 1-.753.134 1.316 1.316 0 0 1-.931-.312 1.137 1.137 0 0 1-.338-.879q0-1.224 1.932-1.282l.681-.026v-.239a.981.981 0 0 0-.2-.675.819.819 0 0 0-.635-.219 1.891 1.891 0 0 0-.6.1 4.925 4.925 0 0 0-.533.213l-.2-.5a2.988 2.988 0 0 1 .664-.253 2.861 2.861 0 0 1 .711-.091 1.569 1.569 0 0 1 1.084.323 1.321 1.321 0 0 1 .359 1.026v2.74zm-1.359-.458a1.218 1.218 0 0 0 .871-.3 1.108 1.108 0 0 0 .317-.848v-.361l-.594.026a2.156 2.156 0 0 0-1.01.22.665.665 0 0 0-.317.612.613.613 0 0 0 .193.484.794.794 0 0 0 .54.168" transform="translate(2.512 .108)" style="fill:#56575a"/>
        <path data-name="사각형 243" transform="translate(41.855)" style="fill:#56575a" d="M0 0h.659v5.701H0z"/>
        <path data-name="패스 42" d="M45.81 4.251a1.334 1.334 0 0 1-.506 1.1 2.205 2.205 0 0 1-1.407.4 3.449 3.449 0 0 1-1.473-.251v-.641a3.885 3.885 0 0 0 .745.232 3.755 3.755 0 0 0 .757.084 1.48 1.48 0 0 0 .9-.231.752.752 0 0 0 .3-.634.793.793 0 0 0-.11-.44 1.04 1.04 0 0 0-.368-.323 5.22 5.22 0 0 0-.783-.341 2.537 2.537 0 0 1-1.062-.64 1.4 1.4 0 0 1-.318-.951 1.2 1.2 0 0 1 .471-1A1.95 1.95 0 0 1 44.2.25a3.581 3.581 0 0 1 1.476.3l-.209.579A3.357 3.357 0 0 0 44.19.843a1.2 1.2 0 0 0-.745.206.679.679 0 0 0-.27.575.84.84 0 0 0 .105.438.965.965 0 0 0 .337.316 4.371 4.371 0 0 0 .731.327 3.94 3.94 0 0 1 .891.427 1.346 1.346 0 0 1 .432.476 1.4 1.4 0 0 1 .139.643" transform="translate(3.059 .018)" style="fill:#56575a"/>
        <path data-name="패스 43" d="M46.457.578A.4.4 0 0 1 46.57.26a.422.422 0 0 1 .545 0 .392.392 0 0 1 .116.318.4.4 0 0 1-.117.322.412.412 0 0 1-.545 0 .41.41 0 0 1-.113-.318m.711 5.112h-.659V1.666h.659z" transform="translate(3.349 .011)" style="fill:#56575a"/>
        <path data-name="패스 44" d="M51.05 5.593V3.022a1.062 1.062 0 0 0-.218-.731.882.882 0 0 0-.684-.24 1.093 1.093 0 0 0-.9.343 1.764 1.764 0 0 0-.28 1.115v2.084h-.66V1.57h.532l.1.55h.038a1.237 1.237 0 0 1 .523-.46 1.693 1.693 0 0 1 .744-.163 1.5 1.5 0 0 1 1.1.359 1.521 1.521 0 0 1 .355 1.117v2.62z" transform="translate(3.483 .108)" style="fill:#56575a"/>
        <path data-name="패스 45" d="M54.264 5.667a1.734 1.734 0 0 1-1.352-.533 2.2 2.2 0 0 1-.484-1.53 2.262 2.262 0 0 1 .489-1.56 1.772 1.772 0 0 1 1.395-.544 2.786 2.786 0 0 1 .581.061 1.911 1.911 0 0 1 .475.155l-.2.55a2.55 2.55 0 0 0-.868-.191 1.055 1.055 0 0 0-.9.383 1.879 1.879 0 0 0-.29 1.142 1.833 1.833 0 0 0 .29 1.112 1 1 0 0 0 .858.387 2.467 2.467 0 0 0 1.042-.235v.586a2.229 2.229 0 0 1-1.037.217" transform="translate(3.78 .108)" style="fill:#56575a"/>
        <path data-name="패스 46" d="M57.723 5.667a1.857 1.857 0 0 1-1.423-.546 2.117 2.117 0 0 1-.515-1.508 2.324 2.324 0 0 1 .48-1.541 1.6 1.6 0 0 1 1.3-.574 1.564 1.564 0 0 1 1.209.489 1.88 1.88 0 0 1 .45 1.325v.4H56.47a1.541 1.541 0 0 0 .348 1.041 1.21 1.21 0 0 0 .934.355 3.116 3.116 0 0 0 .612-.057 3.506 3.506 0 0 0 .678-.221v.579a3.29 3.29 0 0 1-.626.2 3.619 3.619 0 0 1-.693.058m-.165-3.631a.957.957 0 0 0-.747.3 1.419 1.419 0 0 0-.326.846h2.048a1.306 1.306 0 0 0-.259-.858.9.9 0 0 0-.715-.293" transform="translate(4.022 .108)" style="fill:#56575a"/>
        <path data-name="패스 47" d="M63.787 5.678h-.645V1.933c0-.332.011-.64.03-.923a2.331 2.331 0 0 1-.22.2q-.375.312-.818.674l-.344-.444L63.242.321h.546z" transform="translate(4.455 .023)" style="fill:#56575a"/>
        <path data-name="패스 48" d="M69.047 2.613q0 3.144-2.463 3.144a2.444 2.444 0 0 1-.673-.074V5.12a1.976 1.976 0 0 0 .659.1 1.84 1.84 0 0 0 .985-.24 1.513 1.513 0 0 0 .592-.7 3.375 3.375 0 0 0 .233-1.222h-.047a1.421 1.421 0 0 1-1.276.623 1.485 1.485 0 0 1-1.122-.431 1.638 1.638 0 0 1-.416-1.189 1.834 1.834 0 0 1 .465-1.32A1.633 1.633 0 0 1 67.23.249a1.67 1.67 0 0 1 .962.281 1.773 1.773 0 0 1 .635.817 3.325 3.325 0 0 1 .221 1.266M67.23.806a.971.971 0 0 0-.777.326 1.376 1.376 0 0 0-.278.92 1.164 1.164 0 0 0 .262.819.988.988 0 0 0 .764.284 1.338 1.338 0 0 0 .6-.134 1.075 1.075 0 0 0 .426-.36.85.85 0 0 0 .153-.48 1.636 1.636 0 0 0-.145-.685 1.233 1.233 0 0 0-.4-.5 1.02 1.02 0 0 0-.6-.184" transform="translate(4.724 .018)" style="fill:#56575a"/>
        <path data-name="패스 49" d="m70.173 5.679 2.2-4.756H69.48v-.6h3.595v.508L70.9 5.679z" transform="translate(5.009 .023)" style="fill:#56575a"/>
        <path data-name="패스 50" d="M77.075 3a3.879 3.879 0 0 1-.442 2.078 1.489 1.489 0 0 1-1.342.682 1.474 1.474 0 0 1-1.323-.7A3.826 3.826 0 0 1 73.517 3a3.911 3.911 0 0 1 .435-2.079 1.633 1.633 0 0 1 2.668.025A3.8 3.8 0 0 1 77.075 3m-2.894 0a3.936 3.936 0 0 0 .265 1.682.951.951 0 0 0 1.7-.013A3.935 3.935 0 0 0 76.408 3a3.9 3.9 0 0 0-.265-1.66.95.95 0 0 0-1.7-.012A3.926 3.926 0 0 0 74.181 3" transform="translate(5.3 .017)" style="fill:#56575a"/>
    </g>
</svg>
