<svg xmlns="http://www.w3.org/2000/svg" width="148.318" height="20.599" viewBox="0 0 148.318 20.599">
    <defs>
        <clipPath id="mbvahf8lla">
            <path data-name="사각형 245" style="fill:none" d="M0 0h148.318v20.599H0z"/>
        </clipPath>
    </defs>
    <g data-name="그룹 20" style="clip-path:url(#mbvahf8lla)">
        <path data-name="패스 51" d="M5.478 4.822a4.4 4.4 0 0 1 .88.011 9.174 9.174 0 0 1 1.995-1.1 8.652 8.652 0 0 1 7.109.023 7.618 7.618 0 0 1 .621.366c.044-.03.092-.062.136-.087a7.827 7.827 0 0 1 1.69-.771A10.3 10.3 0 0 0 .389 7.841a8.238 8.238 0 0 1 5.089-3.019" transform="translate(-.172)" style="fill:#00315b"/>
        <path data-name="패스 52" d="M3.08 20.567a6.783 6.783 0 0 0 1.466-.106 8.282 8.282 0 0 1-1.4-5.415 7.718 7.718 0 0 1 2.381-5.157c-.1.011-.2.018-.307.035a5.349 5.349 0 0 0-1.317.4c-.254.12-.49.245-.713.379a.15.15 0 0 0-.026.015c-.084.05-.163.1-.244.156a7.441 7.441 0 0 0-2.188 2.361A6.415 6.415 0 0 0 0 15.93a10.2 10.2 0 0 0 1.254 3.8 2.75 2.75 0 0 0 1.826.842" transform="translate(0 -4.361)" style="fill:#00315b"/>
        <path data-name="패스 53" d="M25.473 12.863s1.993-2.192.426-4.066a6.676 6.676 0 0 0-.252.231 38.5 38.5 0 0 0-2.849 4.46 2.114 2.114 0 0 0 2.675-.624" transform="translate(-10.054 -3.879)" style="fill:#00315b"/>
        <path data-name="패스 54" d="M11.763 15.852a26.665 26.665 0 0 0 2.124-2.9l1.4-2.109a17.693 17.693 0 0 1 3.115-3.573 2.277 2.277 0 0 0-.117-.1s-3.545-2.337-8.01.695a3.534 3.534 0 0 1 2.1 2.03h-.326A2.8 2.8 0 0 0 9.683 8.3l-.307.241a7.736 7.736 0 0 0-1.2 10.171 8.212 8.212 0 0 0 3.589-2.859" transform="translate(-3 -2.782)" style="fill:#00315b"/>
        <path data-name="패스 55" d="M19.694 6.412a6.191 6.191 0 0 0-1.65.9c.12.106.236.216.349.337a3.409 3.409 0 0 1-4.252 5.265 16.787 16.787 0 0 1-3.993 4.918l.021-.008a7.3 7.3 0 0 1-2.8 1.59 6.322 6.322 0 0 0 2.741 1.754 4.922 4.922 0 0 0 3.577-.306l.369.15s-1.2 1.44-4.25.5a6.857 6.857 0 0 1-3.072-1.945 6.421 6.421 0 0 1-2.953-.088A10.3 10.3 0 1 0 19.694 6.412" transform="translate(-1.668 -2.828)" style="fill:#00315b"/>
        <path data-name="패스 56" d="M56.16 10.1a2.211 2.211 0 0 0-.7-.467 4.177 4.177 0 0 0-.766-.237 4.688 4.688 0 0 0-.735-.1q-.343-.014-.577-.015-.173 0-.423.015c-.165.011-.338.019-.517.024s-.362.013-.538.023-.322.016-.445.016c-.245 0-.5-.008-.747-.024s-.5-.033-.749-.054l-.1-.008v.1q.047 1.023.085 2.006c.025.657.038 1.332.038 2v2.666c0 .671-.013 1.348-.038 2.01s-.054 1.311-.085 1.953l-.005.1.1-.008a9.51 9.51 0 0 1 1.5 0l.1.008-.006-.1c-.031-.641-.059-1.29-.086-1.953s-.038-1.333-.038-2.01v-.76c.178.016.352.026.518.031.2.005.414.008.653.008A7.736 7.736 0 0 0 53.9 15.2a4.366 4.366 0 0 0 1.391-.49 3.305 3.305 0 0 0 1.109-1.017 2.935 2.935 0 0 0 .457-1.706 2.909 2.909 0 0 0-.193-1.125 2.29 2.29 0 0 0-.506-.764m-.894 1.981A2.642 2.642 0 0 1 55 13.334a2.1 2.1 0 0 1-.67.76 2.57 2.57 0 0 1-.908.384 4.7 4.7 0 0 1-1.99 0v-4.452h1.31a6.208 6.208 0 0 1 1.07.084 1.948 1.948 0 0 1 .781.3 1.451 1.451 0 0 1 .489.616 2.608 2.608 0 0 1 .179 1.05" transform="translate(-21.991 -4.091)" style="fill:#00315b"/>
        <path data-name="패스 57" d="M74.834 19.324c-.234-.274-.49-.583-.758-.92s-.548-.686-.836-1.053-.568-.718-.837-1.053-.511-.643-.728-.921l-.421-.539a5.63 5.63 0 0 0 .871-.236 4.1 4.1 0 0 0 1.052-.554 3.21 3.21 0 0 0 .835-.907 2.458 2.458 0 0 0 .347-1.323 2.478 2.478 0 0 0-.267-1.2 2.173 2.173 0 0 0-.725-.782 3.138 3.138 0 0 0-1.059-.423 7.512 7.512 0 0 0-2.148-.086 12.69 12.69 0 0 1-1.755.015q-.432-.023-.882-.054l-.094-.007v.1c.031.682.058 1.351.085 2.006s.038 1.332.038 2v2.666c0 .671-.013 1.348-.038 2.01s-.054 1.311-.085 1.953l-.006.1.1-.008a9.517 9.517 0 0 1 1.5 0l.1.008-.006-.1c-.031-.641-.059-1.29-.086-1.953S69 16.726 69 16.049V15h.468c.321.334.679.743 1.063 1.217a72.383 72.383 0 0 1 2.913 3.846l.03.042.05-.007a2.959 2.959 0 0 1 .438-.03h.915a3.269 3.269 0 0 1 .452.03l.248.032-.177-.176a11.015 11.015 0 0 1-.569-.631m-2.975-5.541a2.829 2.829 0 0 1-.926.369 5.9 5.9 0 0 1-1.542.091A2.809 2.809 0 0 1 69 14.2v-.813c0-.556.01-1.119.031-1.67l.06-1.617a11.944 11.944 0 0 1 1.422-.068 4.069 4.069 0 0 1 .8.083 2.132 2.132 0 0 1 .746.306 1.714 1.714 0 0 1 .555.6 1.931 1.931 0 0 1 .213.958 2.054 2.054 0 0 1-.274 1.109 2.164 2.164 0 0 1-.693.7" transform="translate(-29.735 -4.092)" style="fill:#00315b"/>
        <path data-name="패스 58" d="m91.948 19.158.038-.134-.136.03a7.447 7.447 0 0 1-.866.112 31.132 31.132 0 0 1-2.216.087h-1a29.386 29.386 0 0 1-.02-.786c0-.381-.007-.868-.007-1.456v-1.533c0-.164 0-.3.007-.407 0-.078.007-.151.008-.222l.666.008 1.008.016c.348.006.707.018 1.065.039s.67.046.932.077l.116.013-.023-.113a2.3 2.3 0 0 1-.045-.448 2.379 2.379 0 0 1 .045-.465l.022-.111-.112.011c-.226.02-.466.038-.718.054l-.828.046q-.448.023-.989.038c-.337.011-.72.016-1.138.016 0-.191 0-.453-.008-.784 0-.382-.007-.775-.007-1.177 0-.38.007-.723.023-1.019q.022-.413.036-.865c.464 0 .873.008 1.216.023.361.016.693.034 1 .055l.868.061c.274.02.576.041.907.062l.109.006-.022-.107a2.3 2.3 0 0 1 0-.9l.021-.105-.107.005q-.7.031-1.379.053c-.9.032-1.848.031-2.76 0q-.689-.022-1.386-.053h-.092v.092q.047.993.084 1.983c.027.662.04 1.339.04 2.01v2.666c0 .671-.013 1.346-.04 2s-.053 1.315-.084 1.976v.092h.092c.462-.02.936-.029 1.408-.029h2.804c.466 0 .931.01 1.384.029l.119.006-.034-.112a1.348 1.348 0 0 1-.043-.379c0-.071 0-.149.007-.236a1.07 1.07 0 0 1 .036-.221" transform="translate(-38 -4.094)" style="fill:#00315b"/>
        <path data-name="패스 59" d="M114.051 17.257q-.155-1.308-.31-2.649t-.3-2.727q-.148-1.386-.318-2.876l-.009-.074h-.326l-.023.045-.837 1.533q-.45.822-.907 1.675t-.9 1.681q-.441.831-.828 1.542t-.681 1.263c-.155.288-.28.523-.377.707-.757-1.387-1.5-2.773-2.21-4.124a150.203 150.203 0 0 1-2.161-4.274l-.022-.048h-.393l-.007.076c-.083.827-.183 1.7-.3 2.609s-.237 1.837-.371 2.78-.275 1.879-.419 2.8-.284 1.813-.418 2.65l-.018.112.112-.015a4.637 4.637 0 0 1 1.064 0l.094.012v-.1c0-.41.026-.943.077-1.581s.114-1.34.186-2.059.15-1.458.24-2.215l.214-1.852a303.52 303.52 0 0 0 1.936 3.8 137.65 137.65 0 0 1 1.944 3.91l.022.049h.248l.022-.05a60.15 60.15 0 0 1 1.958-4.031 410.595 410.595 0 0 1 2-3.7c.153 1.257.285 2.513.393 3.735q.169 1.938.34 4l.008.091.091-.016a2.045 2.045 0 0 1 .349-.029h.728a2.054 2.054 0 0 1 .351.029l.113.02-.017-.115a99.972 99.972 0 0 1-.34-2.593" transform="translate(-44.946 -3.939)" style="fill:#00315b"/>
        <path data-name="패스 60" d="M132.293 11.374q.038-.984.086-2.006v-.1l-.1.016q-.2.03-.385.053a2.9 2.9 0 0 1-.723 0 13.452 13.452 0 0 1-.384-.053l-.1-.016.006.1q.045 1.023.084 2.006c.026.657.039 1.332.039 2v2.666c0 .671-.013 1.348-.039 2.011s-.054 1.311-.084 1.952l-.006.1.1-.008a9.5 9.5 0 0 1 1.5 0l.1.008v-.1c-.032-.641-.06-1.289-.086-1.952s-.039-1.333-.039-2.011v-2.663c0-.678.012-1.351.039-2" transform="translate(-57.632 -4.086)" style="fill:#00315b"/>
        <path data-name="패스 61" d="m146.39 19.158.038-.134-.136.03a7.436 7.436 0 0 1-.865.112 31.139 31.139 0 0 1-2.218.087h-1a29.386 29.386 0 0 1-.02-.786c-.005-.381-.007-.868-.007-1.456v-1.533c0-.164 0-.3.007-.407 0-.078.007-.151.008-.222l.666.008 1.007.016c.348.006.707.018 1.065.039s.67.046.934.077l.115.013-.023-.113a2.3 2.3 0 0 1-.045-.448 2.38 2.38 0 0 1 .045-.465l.022-.111-.112.011c-.227.02-.466.038-.718.054l-.828.046c-.3.016-.629.029-.99.038a35.43 35.43 0 0 1-1.138.016c0-.191 0-.453-.008-.784a90.2 90.2 0 0 1-.007-1.177c0-.38.007-.723.023-1.019q.021-.413.036-.865c.464 0 .873.008 1.216.023.361.016.693.034 1 .055l.868.061c.274.02.576.041.907.062l.11.006-.022-.107a2.243 2.243 0 0 1 0-.9l.021-.105-.107.005q-.7.031-1.378.053c-.9.032-1.847.031-2.76 0q-.69-.022-1.386-.053h-.093l.005.092q.046.993.084 1.983c.026.662.04 1.339.04 2.01v2.666c0 .671-.014 1.346-.04 2s-.054 1.315-.084 1.976l-.005.092h.092c.462-.02.936-.029 1.407-.029h2.812c.467 0 .931.01 1.384.029l.118.006-.034-.112a1.369 1.369 0 0 1-.043-.379c0-.071 0-.149.008-.236a1.04 1.04 0 0 1 .035-.221" transform="translate(-62.008 -4.094)" style="fill:#00315b"/>
        <path data-name="패스 62" d="M163.8 19.324c-.235-.274-.49-.583-.757-.92s-.548-.686-.837-1.053-.569-.718-.836-1.053-.511-.643-.728-.921c-.168-.217-.309-.4-.422-.539a5.607 5.607 0 0 0 .873-.236 4.1 4.1 0 0 0 1.051-.554 3.218 3.218 0 0 0 .835-.907 2.458 2.458 0 0 0 .346-1.323 2.484 2.484 0 0 0-.265-1.2 2.18 2.18 0 0 0-.726-.782 3.134 3.134 0 0 0-1.059-.423 7.513 7.513 0 0 0-2.148-.086 12.7 12.7 0 0 1-1.755.015 49.417 49.417 0 0 1-.881-.054l-.1-.007.005.1q.046 1.023.085 2.006c.026.657.039 1.332.039 2v2.666c0 .671-.013 1.348-.039 2.01s-.054 1.311-.085 1.953l-.006.1.1-.008a9.5 9.5 0 0 1 1.5 0l.1.008v-.1c-.032-.641-.061-1.29-.087-1.953s-.037-1.333-.037-2.01V15h.468c.321.334.678.743 1.063 1.217a72.383 72.383 0 0 1 2.212 2.871c.316.437.55.759.7.975l.031.042.05-.007a2.936 2.936 0 0 1 .437-.03h.913a3.282 3.282 0 0 1 .454.03l.247.032-.176-.176a11.015 11.015 0 0 1-.569-.631m-2.976-5.541a2.83 2.83 0 0 1-.926.369 5.9 5.9 0 0 1-1.542.091 2.8 2.8 0 0 1-.394-.048v-.813c0-.556.01-1.119.03-1.67l.059-1.617a12.27 12.27 0 0 1 1.422-.068 4.09 4.09 0 0 1 .8.083 2.139 2.139 0 0 1 .745.306 1.719 1.719 0 0 1 .555.6 1.937 1.937 0 0 1 .214.958 2.059 2.059 0 0 1-.274 1.109 2.173 2.173 0 0 1-.694.7" transform="translate(-68.968 -4.092)" style="fill:#00315b"/>
        <path data-name="패스 63" d="M189.263 10.1a2.226 2.226 0 0 0-.7-.467 4.141 4.141 0 0 0-.768-.237 4.644 4.644 0 0 0-.733-.1q-.344-.014-.577-.015c-.115 0-.257.005-.424.015s-.337.019-.517.024-.361.013-.537.023-.322.016-.444.016c-.244 0-.5-.008-.746-.024s-.5-.033-.75-.054l-.1-.008.005.1c.03.682.059 1.351.084 2.006s.039 1.332.039 2v2.666c0 .671-.013 1.348-.039 2.01s-.055 1.311-.084 1.953l-.006.1.1-.008a9.5 9.5 0 0 1 1.5 0l.1.008-.005-.1c-.032-.641-.06-1.29-.086-1.953s-.039-1.333-.039-2.01v-.76c.179.016.352.026.518.031.2.005.415.008.653.008A7.755 7.755 0 0 0 187 15.2a4.349 4.349 0 0 0 1.389-.49 3.287 3.287 0 0 0 1.114-1.017 2.935 2.935 0 0 0 .457-1.706 2.933 2.933 0 0 0-.192-1.125 2.316 2.316 0 0 0-.507-.764m-.895 1.981a2.648 2.648 0 0 1-.261 1.254 2.106 2.106 0 0 1-.67.76 2.571 2.571 0 0 1-.908.384 4.7 4.7 0 0 1-1.991 0v-4.451h1.311a6.206 6.206 0 0 1 1.069.084 1.942 1.942 0 0 1 .781.3 1.458 1.458 0 0 1 .49.616 2.639 2.639 0 0 1 .178 1.05" transform="translate(-80.689 -4.091)" style="fill:#00315b"/>
        <path data-name="패스 64" d="M205.054 18.744a255.465 255.465 0 0 1-1.558-3.579c-.299-.704-.6-1.409-.9-2.123s-.595-1.418-.883-2.115-.558-1.345-.807-1.944l-.021-.052h-.406l-.022.051c-.806 1.849-1.614 3.684-2.4 5.454s-1.613 3.587-2.448 5.391l-.064.136.151-.017a5.419 5.419 0 0 1 1.126 0l.072.009.019-.069c.133-.471.336-1.077.6-1.8s.557-1.465.878-2.247c.3-.009.6-.017.888-.022a71.575 71.575 0 0 1 1.966 0c.32.005.637.013.95.022.128.324.266.667.414 1.026q.233.565.456 1.114c.151.371.29.724.411 1.052s.221.623.291.855l.021.07.073-.011a2.667 2.667 0 0 1 .4-.03h.822a2.7 2.7 0 0 1 .4.03l.166.024-.08-.148a15.087 15.087 0 0 1-.516-1.078m-3.141-3.78c-.247.008-.5.014-.742.018a28.5 28.5 0 0 1-1.7-.008 33.346 33.346 0 0 0-.713-.015l1.562-3.641z" transform="translate(-86.235 -3.939)" style="fill:#00315b"/>
        <path data-name="패스 65" d="M223.692 10.1a2.215 2.215 0 0 0-.7-.467 4.13 4.13 0 0 0-.766-.237 4.659 4.659 0 0 0-.734-.1c-.228-.01-.421-.015-.577-.015q-.172 0-.424.015c-.164.011-.336.019-.515.024s-.361.013-.538.023-.322.016-.444.016c-.245 0-.5-.008-.746-.024s-.5-.033-.75-.054l-.1-.008.005.1q.045 1.023.084 2.006c.026.657.039 1.332.039 2v2.666c0 .671-.013 1.348-.039 2.01s-.054 1.311-.084 1.953l-.005.1.1-.008a9.517 9.517 0 0 1 1.5 0l.1.008v-.1c-.031-.641-.06-1.29-.085-1.953s-.039-1.333-.039-2.01v-.76c.178.016.351.026.517.031.2.005.415.008.653.008a7.759 7.759 0 0 0 1.294-.125 4.369 4.369 0 0 0 1.39-.49 3.29 3.29 0 0 0 1.113-1.017 2.944 2.944 0 0 0 .457-1.706 2.921 2.921 0 0 0-.192-1.125 2.3 2.3 0 0 0-.508-.764m-.894 1.981a2.647 2.647 0 0 1-.262 1.254 2.093 2.093 0 0 1-.67.76 2.56 2.56 0 0 1-.908.384 4.69 4.69 0 0 1-1.989 0v-4.45h1.309a6.205 6.205 0 0 1 1.07.084 1.927 1.927 0 0 1 .78.3 1.452 1.452 0 0 1 .491.616 2.618 2.618 0 0 1 .179 1.05" transform="translate(-95.872 -4.091)" style="fill:#00315b"/>
        <path data-name="패스 66" d="m240.74 19.158.038-.134-.136.03a7.425 7.425 0 0 1-.865.112 31.091 31.091 0 0 1-2.217.087h-1a29.386 29.386 0 0 1-.02-.786 99.875 99.875 0 0 1-.007-1.456v-1.533c0-.164 0-.3.007-.407 0-.078.007-.151.008-.222l.666.008 1.008.016c.347.006.707.018 1.065.039s.67.046.932.077l.116.013-.023-.113a2.347 2.347 0 0 1-.045-.448 2.423 2.423 0 0 1 .045-.465l.022-.111-.112.011c-.226.02-.466.038-.718.054l-.828.046q-.449.023-.99.038c-.337.011-.72.016-1.138.016 0-.191 0-.453-.008-.784a75.46 75.46 0 0 1-.007-1.177c0-.38.007-.723.023-1.019q.021-.413.036-.865c.464 0 .873.008 1.216.023.361.016.693.034 1 .055l.866.061c.272.02.576.041.908.062l.109.006-.022-.107a2.271 2.271 0 0 1 0-.9l.021-.105-.107.005q-.7.031-1.378.053c-.9.032-1.848.031-2.76 0q-.688-.022-1.386-.053h-.092v.092q.047.993.084 1.983c.026.662.04 1.339.04 2.01v2.666c0 .671-.014 1.346-.04 2s-.053 1.315-.084 1.976v.092h.092c.462-.02.936-.029 1.407-.029h2.813c.466 0 .93.01 1.382.029l.119.006-.034-.112a1.345 1.345 0 0 1-.044-.379c0-.071 0-.149.008-.236a1 1 0 0 1 .036-.221" transform="translate(-103.616 -4.094)" style="fill:#00315b"/>
        <path data-name="패스 67" d="M258.718 19.956c-.142-.142-.334-.355-.569-.631s-.49-.583-.758-.92-.548-.686-.836-1.053-.569-.718-.837-1.053-.51-.643-.728-.921c-.169-.217-.31-.4-.421-.539a5.618 5.618 0 0 0 .872-.236 4.105 4.105 0 0 0 1.052-.554 3.21 3.21 0 0 0 .835-.907 2.453 2.453 0 0 0 .346-1.323 2.478 2.478 0 0 0-.266-1.2 2.174 2.174 0 0 0-.725-.782 3.145 3.145 0 0 0-1.059-.423 7.515 7.515 0 0 0-2.148-.086 12.705 12.705 0 0 1-1.756.015q-.432-.023-.882-.054l-.094-.007v.1q.047 1.023.084 2.006c.025.657.039 1.332.039 2v2.666c0 .671-.014 1.348-.039 2.01s-.053 1.311-.084 1.953l-.005.1.1-.008a9.509 9.509 0 0 1 1.5 0l.1.008v-.1c-.032-.641-.06-1.29-.086-1.953s-.037-1.333-.037-2.01V15h.468c.321.334.679.743 1.063 1.217a72.383 72.383 0 0 1 2.912 3.846l.03.042.05-.007a2.943 2.943 0 0 1 .438-.03h.914a3.284 3.284 0 0 1 .453.03l.247.032zm-3.545-6.173a2.82 2.82 0 0 1-.926.369 5.9 5.9 0 0 1-1.542.091 2.788 2.788 0 0 1-.394-.048v-.813c0-.556.01-1.119.03-1.67l.059-1.612a12.134 12.134 0 0 1 1.422-.068 4.074 4.074 0 0 1 .8.083 2.129 2.129 0 0 1 .745.306 1.721 1.721 0 0 1 .555.6 1.937 1.937 0 0 1 .213.958 2.054 2.054 0 0 1-.274 1.109 2.156 2.156 0 0 1-.694.7" transform="translate(-110.577 -4.092)" style="fill:#00315b"/>
    </g>
</svg>
