<svg xmlns="http://www.w3.org/2000/svg" width="106.477" height="14.513" viewBox="0 0 106.477 14.513">
    <defs>
        <clipPath id="uo4ip8unfa">
            <path data-name="사각형 251" style="fill:none" d="M0 0h106.477v14.513H0z"/>
        </clipPath>
    </defs>
    <g data-name="그룹 22" style="clip-path:url(#uo4ip8unfa)">
        <path data-name="패스 68" d="M133.415 13.3h-2.575V1.306h2.881c2.49 0 4.358.613 5.553 1.823a5.283 5.283 0 0 1 1.419 3.887c0 3.992-2.652 6.281-7.278 6.281m6.911-10.882C138.982.944 136.727.167 133.8.167h-4.265v14.269h3.715c2.989 0 5.414-.827 6.828-2.329A7.5 7.5 0 0 0 142.015 7a6.459 6.459 0 0 0-1.689-4.581" transform="translate(-35.538 -.046)" style="fill:#1a1311"/>
        <path data-name="패스 69" d="M76.05 0a8.037 8.037 0 0 0-5.939 2.286A7.166 7.166 0 0 0 68.1 7.317c0 4.971 3.716 7.2 7.4 7.2a11.094 11.094 0 0 0 4.006-.653l.1-.038v-1.281l-.219.107a8.335 8.335 0 0 1-3.517.7c-3.9 0-6.422-2.337-6.422-5.955 0-3.862 2.554-6.26 6.667-6.26a7.648 7.648 0 0 1 3.249.676l.242.123V.61l-.1-.038A9.429 9.429 0 0 0 76.05 0" transform="translate(-18.683)" style="fill:#1a1311"/>
        <path data-name="패스 70" d="M94.435.168h-1.3l3.175 8.061h-5.319l-.45 1.14h6.212l2.026 5.048h1.366L94.472.264z" transform="translate(-24.84 -.046)" style="fill:#1a1311"/>
        <path data-name="패스 71" d="M117.885 6.761a4.048 4.048 0 0 0 1.022-2.732V3.96a3.507 3.507 0 0 0-1.023-2.509A4.483 4.483 0 0 0 115.333.3a9.866 9.866 0 0 0-1.563-.132h-5.757V1.3h5.737c1.752 0 3.843.486 3.855 2.8a3.1 3.1 0 0 1-.065.6l-.009.04c-.01.052-.022.1-.037.157a1.6 1.6 0 0 1-.07.193l-.026.064a2.521 2.521 0 0 1-1.028 1.172 5.225 5.225 0 0 1-2.621.575h-5.585l-.152.016v1.124h6.022c.07 0 .147-.009.225-.017l.075-.009c.366-.022.7-.057 1-.1.109-.017.21-.041.31-.064l2.6 6.493.038.1h1.366l-2.8-6.971a3.7 3.7 0 0 0 1.035-.705" transform="translate(-29.633 -.046)" style="fill:#1a1311"/>
        <path data-name="패스 72" d="M30.438 6.481h-8.285V.475h-1.3V14.5h1.3V7.619h8.286V14.5h1.3V.475h-1.3z" transform="translate(-5.72 -.13)" style="fill:#1a1311"/>
        <path data-name="사각형 246" transform="translate(0 .345)" style="fill:#1a1311" d="M0 0h11.52v1.139H0z"/>
        <path data-name="사각형 247" transform="translate(5.109 2.585)" style="fill:#1a1311" d="M0 0h1.302v11.785H0z"/>
        <path data-name="사각형 248" transform="translate(30.215 .345)" style="fill:#1a1311" d="M0 0h10.322v1.141H0z"/>
        <path data-name="사각형 249" transform="translate(30.215 6.4)" style="fill:#1a1311" d="M0 0h10.322v1.141H0z"/>
        <path data-name="사각형 250" transform="translate(30.215 13.229)" style="fill:#1a1311" d="M0 0h10.322v1.141H0z"/>
    </g>
</svg>
